<?xml version="1.0" encoding="UTF-8" standalone="no"?>
<svg width="95px" height="95px" viewBox="0 0 95 95" version="1.1" xmlns="http://www.w3.org/2000/svg" xmlns:xlink="http://www.w3.org/1999/xlink">
    <!-- Generator: sketchtool 40.3 (33839) - http://www.bohemiancoding.com/sketch -->
    <title>B343F33D-8032-4DC0-9080-4EB0E108B1C2</title>
    <desc>Created with sketchtool.</desc>
    <defs></defs>
    <g id="Page-1" stroke="none" stroke-width="1" fill="none" fill-rule="evenodd">
        <g id="02_Sign-Up" transform="translate(-673.000000, -294.000000)" stroke="#D8DBDE">
            <g id="Sign-Up" transform="translate(384.000000, 81.000000)">
                <g id="Group-2" transform="translate(290.000000, 214.000000)">
                    <g id="Avatar">
                        <circle id="Oval-2" cx="46.5" cy="46.5" r="46.5"></circle>
                        <path d="M21.5,85.6316103 C21.5538709,85.6013079 35.1455562,78.2799186 35.1455562,78.2799186 C37.4350686,77.0307875 38.8575966,74.6352168 38.8575966,72.0275296 L38.8559131,65.9636886 L38.4687162,65.4956853 C38.4316799,65.4535987 34.7920286,61.0260857 33.4166377,55.0312669 L33.2634424,54.3646147 L32.6893808,53.992569 C31.8796341,53.4690113 31.3947962,52.5936095 31.3947962,51.6491857 L31.3947962,45.6813022 C31.3947962,44.898491 31.7264388,44.1695507 32.3324862,43.6224245 L32.8880297,43.120752 L32.8880297,33.7438519 L32.8728785,33.523318 C32.8678281,33.4829148 32.3712059,29.4341815 35.2229956,26.1834105 C37.657286,23.4090602 41.8289123,22 47.6183485,22 C53.3858996,22 57.5440581,23.397276 59.9850824,26.1514247 C62.8335052,29.3685263 62.3671854,33.4930156 62.3638184,33.5266849 L62.3486673,43.1241189 L62.9042107,43.6257915 C63.5085746,44.1712341 63.8419007,44.9018579 63.8419007,45.6846692 L63.8419007,51.6525526 C63.8419007,52.8528631 63.0254202,53.942065 61.8537285,54.30401 L61.0170464,54.5615801 L60.747692,55.3948953 C59.7544477,58.4806867 58.3403371,61.3307929 56.5457634,63.8660912 C56.1046955,64.4889733 55.675412,65.0411498 55.3067331,65.4636995 L54.8892338,65.9401201 L54.8892338,72.1672571 C54.8892338,74.8810027 56.3976185,77.322027 58.825175,78.5341218 L71.5,85.6316103 C71.5,85.6316103 63.6051906,93 46.5,93 C29.3948094,93 21.5,85.6316103 21.5,85.6316103 Z" id="Path"></path>
                    </g>
                </g>
            </g>
        </g>
    </g>
</svg>