<?xml version="1.0" encoding="UTF-8" standalone="no"?>
<svg width="14px" height="13px" viewBox="0 0 14 13" version="1.1" xmlns="http://www.w3.org/2000/svg" xmlns:xlink="http://www.w3.org/1999/xlink">
    <!-- Generator: sketchtool 40.3 (33839) - http://www.bohemiancoding.com/sketch -->
    <title>54F15294-9267-423C-9C45-DB08CB1BFBD3</title>
    <desc>Created with sketchtool.</desc>
    <defs></defs>
    <g id="Page-1" stroke="none" stroke-width="1" fill="none" fill-rule="evenodd">
        <g id="04_Profile" transform="translate(-729.000000, -101.000000)" fill="#D2D6D9">
            <g id="input" transform="translate(450.000000, 84.000000)">
                <path d="M286.14217,20.6152344 C286.2854,20.6152344 286.409096,20.6673172 286.513264,20.7714844 C286.617431,20.8756516 286.669514,21.0026034 286.669514,21.1523438 L286.669514,22.8710938 C286.682534,23.0403654 286.770424,23.1315104 286.933185,23.1445313 L289.433185,23.1445313 C289.569905,23.1510417 289.687091,23.2063797 289.784748,23.3105469 C289.882405,23.4147141 289.931232,23.5188797 289.931232,23.6230469 C289.931232,23.7923186 289.88566,23.9290359 289.794514,24.0332031 C289.703367,24.1308599 289.589436,24.1861979 289.452717,24.1992188 L285.878498,24.1992188 C285.709226,24.1861979 285.618081,24.0917978 285.60506,23.9160156 L285.60506,21.1328125 C285.611571,20.9895826 285.666909,20.8658859 285.771076,20.7617188 C285.875243,20.6575516 285.99894,20.6087239 286.14217,20.6152344 L286.14217,20.6152344 Z M290.819904,23.671875 C290.826415,23.033851 290.705973,22.4283883 290.458576,21.8554688 C290.211179,21.2760388 289.879151,20.7779969 289.462482,20.3613281 C289.045814,19.9446594 288.544517,19.6126314 287.958576,19.3652344 C287.385657,19.1178373 286.780194,18.9941406 286.14217,18.9941406 C285.504146,18.9941406 284.898683,19.1178373 284.325764,19.3652344 C283.752844,19.6126314 283.251547,19.9446594 282.821857,20.3613281 C282.405189,20.7779969 282.073161,21.2760388 281.825764,21.8554688 C281.578367,22.4283883 281.45467,23.033851 281.45467,23.671875 C281.45467,24.309899 281.578367,24.9186169 281.825764,25.4980469 C282.073161,26.0774769 282.405189,26.5755188 282.821857,26.9921875 C283.238526,27.4088563 283.739823,27.7408842 284.325764,27.9882813 C284.898683,28.2356783 285.504146,28.359375 286.14217,28.359375 C286.780194,28.359375 287.385657,28.2356783 287.958576,27.9882813 C288.544517,27.7408842 289.045814,27.4088563 289.462482,26.9921875 C289.879151,26.5755188 290.211179,26.0774769 290.458576,25.4980469 C290.705973,24.9186169 290.826415,24.309899 290.819904,23.671875 L290.819904,23.671875 Z M286.14217,17.3535156 C287.001549,17.3470052 287.821853,17.5130191 288.603107,17.8515625 C289.384361,18.1901059 290.054927,18.6393201 290.614826,19.1992188 C291.181235,19.7591174 291.630449,20.4329388 291.962482,21.2207031 C292.294515,21.9954466 292.460529,22.8124957 292.460529,23.671875 C292.460529,24.5312543 292.294515,25.3515586 291.962482,26.1328125 C291.630449,26.9140664 291.181235,27.5846326 290.614826,28.1445313 C290.054927,28.7044299 289.384361,29.1536441 288.603107,29.4921875 C287.821853,29.8307309 287.001549,30 286.14217,30 C285.282791,30 284.462486,29.8307309 283.681232,29.4921875 C282.899978,29.1536441 282.229412,28.7044299 281.669514,28.1445313 C281.103105,27.5846326 280.65389,26.9140664 280.321857,26.1328125 C279.989824,25.3515586 279.82381,24.5312543 279.82381,23.671875 C279.82381,22.8124957 279.989824,21.9954466 280.321857,21.2207031 C280.65389,20.4329388 281.103105,19.7591174 281.669514,19.1992188 C282.229412,18.6393201 282.899978,18.1901059 283.681232,17.8515625 C284.462486,17.5130191 285.282791,17.3470052 286.14217,17.3535156 L286.14217,17.3535156 Z" id="clock_post"></path>
            </g>
        </g>
    </g>
</svg>