<?xml version="1.0" encoding="UTF-8" standalone="no"?>
<svg width="12px" height="12px" viewBox="0 0 12 12" version="1.1" xmlns="http://www.w3.org/2000/svg" xmlns:xlink="http://www.w3.org/1999/xlink">
    <!-- Generator: sketchtool 40.3 (33839) - http://www.bohemiancoding.com/sketch -->
    <title>5B9F1259-54BE-4395-BCB8-FDD4B471776D</title>
    <desc>Created with sketchtool.</desc>
    <defs></defs>
    <g id="Page-1" stroke="none" stroke-width="1" fill="none" fill-rule="evenodd">
        <g id="04_Landing" transform="translate(-823.000000, -241.000000)" fill="#FF8842">
            <g id="timeline-1" transform="translate(450.000000, 227.000000)">
                <path d="M379.318359,17.6584222 C379.443038,17.6584222 379.550713,17.7037592 379.641389,17.7944346 C379.732064,17.88511 379.777401,17.9956189 379.777401,18.1259647 L379.777401,19.6221008 C379.788736,19.7694482 379.865242,19.848788 380.006922,19.8601224 L382.18312,19.8601224 C382.302131,19.8657896 382.404139,19.9139602 382.489148,20.0046355 C382.574156,20.0953109 382.616659,20.1859849 382.616659,20.2766603 C382.616659,20.4240077 382.576989,20.5430174 382.497648,20.6336927 C382.418307,20.7187009 382.319133,20.7668714 382.200121,20.7782059 L379.088839,20.7782059 C378.941491,20.7668714 378.862151,20.6846981 378.850817,20.5316834 L378.850817,18.1089632 C378.856484,17.9842846 378.904655,17.8766092 378.99533,17.7859338 C379.086005,17.6952585 379.193681,17.652755 379.318359,17.6584222 L379.318359,17.6584222 Z M383.966486,20.3185632 C383.972954,19.6846574 383.85329,19.0831028 383.60749,18.5138813 C383.36169,17.9381913 383.031805,17.4433642 382.617826,17.0293849 C382.203847,16.6154056 381.705785,16.2855208 381.123627,16.0397206 C380.554405,15.7939204 379.952851,15.6710221 379.318945,15.6710221 C378.685039,15.6710221 378.083484,15.7939204 377.514263,16.0397206 C376.945041,16.2855208 376.44698,16.6154056 376.020064,17.0293849 C375.606085,17.4433642 375.2762,17.9381913 375.0304,18.5138813 C374.784599,19.0831028 374.661701,19.6846574 374.661701,20.3185632 C374.661701,20.952469 374.784599,21.5572578 375.0304,22.1329477 C375.2762,22.7086377 375.606085,23.2034649 376.020064,23.6174442 C376.434043,24.0314234 376.932105,24.3613082 377.514263,24.6071084 C378.083484,24.8529086 378.685039,24.9758069 379.318945,24.9758069 C379.952851,24.9758069 380.554405,24.8529086 381.123627,24.6071084 C381.705785,24.3613082 382.203847,24.0314234 382.617826,23.6174442 C383.031805,23.2034649 383.36169,22.7086377 383.60749,22.1329477 C383.85329,21.5572578 383.972954,20.952469 383.966486,20.3185632 L383.966486,20.3185632 Z M381.460554,15.2527035 C382.140619,15.5473985 382.724333,15.9384301 383.211713,16.4258102 C383.704761,16.9131903 384.095792,17.4997377 384.38482,18.1854702 C384.673848,18.8598682 384.818359,19.5710924 384.818359,20.3191641 C384.818359,21.0672359 384.673848,21.7812936 384.38482,22.4613589 C384.095792,23.1414241 383.704761,23.725138 383.211713,24.2125181 C382.724333,24.6998981 382.140619,25.0909298 381.460554,25.3856247 C380.780489,25.6803196 380.066431,25.8276649 379.318359,25.8276649 C378.570288,25.8276649 377.85623,25.6803196 377.176165,25.3856247 C376.496099,25.0909298 375.912386,24.6998981 375.425005,24.2125181 C374.931958,23.725138 374.540927,23.1414241 374.251899,22.4613589 C373.962871,21.7812936 373.818359,21.0672359 373.818359,20.3191641 C373.818359,19.5710924 373.962871,18.8598682 374.251899,18.1854702 C374.540927,17.4997377 374.931958,16.9131903 375.425005,16.4258102 C375.912386,15.9384301 376.496099,15.5473985 377.176165,15.2527035 C377.85623,14.9580086 378.570288,14.8134969 379.318359,14.8191641 C380.066431,14.8134969 380.780489,14.9580086 381.460554,15.2527035 Z" id="clock"></path>
            </g>
        </g>
    </g>
</svg>