<?xml version="1.0" encoding="UTF-8" standalone="no"?>
<svg width="13px" height="13px" viewBox="0 0 13 13" version="1.1" xmlns="http://www.w3.org/2000/svg" xmlns:xlink="http://www.w3.org/1999/xlink">
    <!-- Generator: sketchtool 40.3 (33839) - http://www.bohemiancoding.com/sketch -->
    <title>8E12DB58-BB97-4FB1-9476-DFDB704206F3</title>
    <desc>Created with sketchtool.</desc>
    <defs></defs>
    <g id="Page-1" stroke="none" stroke-width="1" fill="none" fill-rule="evenodd">
        <g id="08_Map-View" transform="translate(-924.000000, -237.000000)" fill="#FFFFFF">
            <g id="Map" transform="translate(-1.000000, 0.000000)">
                <g transform="translate(225.000000, 229.000000)" id="close_button">
                    <path d="M707.879422,14.2120205 L712.474878,9.77424073 C712.893897,9.36959892 712.900546,8.72260343 712.505693,8.31372071 C712.108087,7.90198733 711.456859,7.89580519 711.044987,8.2935454 L706.397825,12.7812581 L701.750662,8.2935454 C701.33879,7.89580519 700.687563,7.90198733 700.289956,8.31372071 C699.895103,8.72260343 699.901752,9.36959892 700.320771,9.77424073 L704.916227,14.2120205 L700.320771,18.6498003 C699.901752,19.0544421 699.895103,19.7014376 700.289956,20.1103203 C700.687563,20.5220537 701.33879,20.5282358 701.750662,20.1304956 L706.397825,15.6427829 L711.044987,20.1304956 C711.456859,20.5282358 712.108087,20.5220537 712.505693,20.1103203 C712.900546,19.7014376 712.893897,19.0544421 712.474878,18.6498003 L707.879422,14.2120205 Z"></path>
                </g>
            </g>
        </g>
    </g>
</svg>