<?xml version="1.0" encoding="UTF-8" standalone="no"?>
<svg width="38px" height="37px" viewBox="0 0 38 37" version="1.1" xmlns="http://www.w3.org/2000/svg" xmlns:xlink="http://www.w3.org/1999/xlink">
    <!-- Generator: sketchtool 40.3 (33839) - http://www.bohemiancoding.com/sketch -->
    <title>79C3AA48-D6DC-473D-880B-13474002AF8B</title>
    <desc>Created with sketchtool.</desc>
    <defs></defs>
    <g id="Page-1" stroke="none" stroke-width="1" fill="none" fill-rule="evenodd">
        <g id="01_Sign-In" transform="translate(-783.000000, -752.000000)">
            <g id="Already-a-member" transform="translate(384.000000, 203.000000)">
                <g id="Group-3" transform="translate(236.000000, 549.000000)">
                    <g id="facebook" transform="translate(163.000000, 0.000000)">
                        <g id="Layer_1" transform="translate(0.398768, 0.000000)">
                            <ellipse id="Oval" fill="#4E598F" cx="18.3699881" cy="18.3607413" rx="18.3699163" ry="18.3607413"></ellipse>
                            <g id="Group" transform="translate(7.821566, 7.817659)" fill="#FFFFFF">
                                <path d="M18.2294869,0.033422287 L2.86728561,0.033422287 C1.30232661,0.033422287 0.0335825033,1.30146099 0.0335825033,2.86571008 L0.0335825033,18.2202386 C0.0335825033,19.7845595 1.30225485,21.0525264 2.86728561,21.0525264 L10.443728,21.0525264 L10.4568596,13.5416922 L8.50433841,13.5416922 C8.25060394,13.5416922 8.04465996,13.3365683 8.04379887,13.0829606 L8.03425512,10.6617095 C8.03325052,10.4068825 8.23998384,10.1995353 8.49493818,10.1995353 L10.444015,10.1995353 L10.444015,7.86011862 C10.444015,5.14531088 12.1029046,3.66705603 14.5258678,3.66705603 L16.5142678,3.66705603 C16.7685045,3.66705603 16.9749508,3.87318404 16.9749508,4.127509 L16.9749508,6.16892221 C16.9749508,6.42324716 16.7687198,6.62937517 16.5145548,6.62937517 L15.294247,6.63009239 C13.9765643,6.63009239 13.7212511,7.25586375 13.7212511,8.17447459 L13.7212511,10.1998221 L16.6167374,10.1998221 C16.8928602,10.1998221 17.1068411,10.4406634 17.0741914,10.7142815 L16.7870897,13.1355326 C16.7597501,13.3673369 16.5630628,13.5418357 16.3296357,13.5418357 L13.734311,13.5418357 L13.7211794,21.0529568 L18.2294152,21.0529568 C19.7943742,21.0529568 21.0631183,19.7847746 21.0631183,18.2205973 L21.0631183,2.86571008 C21.06319,1.30153271 19.7944459,0.033422287 18.2294869,0.033422287 L18.2294869,0.033422287 L18.2294869,0.033422287 Z" id="Shape"></path>
                                <polygon id="Shape" points="10.5572122 21.0524547 10.6487122 13.5416205 10.4247122 13.5416205 10.4247122 21.0524547"></polygon>
                            </g>
                            <path d="M26.0510529,7.85108169 L18.2462782,7.85108169 L18.2462782,18.0169795 L18.2655809,18.0169795 L18.2655809,15.6776346 C18.2655809,12.9628268 19.9244705,11.484572 22.3474338,11.484572 L24.3358337,11.484572 C24.5900705,11.484572 24.7965167,11.6907 24.7965167,11.945025 L24.7965167,13.9864382 C24.7965167,14.2407631 24.5902857,14.4468911 24.3361207,14.4468911 L23.1158129,14.4476083 C21.7981302,14.4476083 21.5428171,15.0733797 21.5428171,15.9919906 L21.5428171,18.0172664 L24.4383034,18.0172664 C24.7144262,18.0172664 24.928407,18.2581077 24.8957573,18.5317258 L24.6086556,20.9529768 C24.581316,21.1847812 24.3846288,21.3592799 24.1512017,21.3592799 L21.5558769,21.3592799 L21.5427453,28.870401 L26.0509811,28.870401 C27.6159401,28.870401 28.8846842,27.6022189 28.8846842,26.0380415 L28.8846842,10.6833695 C28.884756,9.11919211 27.6160119,7.85108169 26.0510529,7.85108169 L26.0510529,7.85108169 Z" id="Shape" fill="#D1D1D1"></path>
                        </g>
                    </g>
                </g>
            </g>
        </g>
    </g>
</svg>