<?xml version="1.0" encoding="UTF-8" standalone="no"?>
<svg width="37px" height="37px" viewBox="0 0 37 37" version="1.1" xmlns="http://www.w3.org/2000/svg" xmlns:xlink="http://www.w3.org/1999/xlink">
    <!-- Generator: sketchtool 40.3 (33839) - http://www.bohemiancoding.com/sketch -->
    <title>4976D0A2-FB91-4E28-B22D-37060CA92F35</title>
    <desc>Created with sketchtool.</desc>
    <defs></defs>
    <g id="Page-1" stroke="none" stroke-width="1" fill="none" fill-rule="evenodd">
        <g id="01_Sign-In" transform="translate(-734.000000, -752.000000)">
            <g id="Already-a-member" transform="translate(384.000000, 203.000000)">
                <g id="Group-3" transform="translate(236.000000, 549.000000)">
                    <g id="google-plus" transform="translate(114.000000, 0.000000)">
                        <g id="Layer_1">
                            <ellipse id="Oval" fill="#CF4C3C" cx="18.4057951" cy="18.3966022" rx="18.4057951" ry="18.3966022"></ellipse>
                            <path d="M15.2630775,19.7866954 L18.5551984,19.7866954 C17.9773571,21.4194657 16.4122174,22.5901651 14.5801937,22.5767988 C12.3571188,22.5604144 10.5186243,20.7828427 10.4324909,18.5623872 C10.3400306,16.1823268 12.2504227,14.2163336 14.6113973,14.2163336 C15.6910841,14.2163336 16.6762974,14.6275983 17.419,15.301302 C17.5950054,15.460835 17.8626084,15.4619848 18.0357379,15.2990743 L19.2449124,14.1618624 C19.4340751,13.9839328 19.4346503,13.6834071 19.2460628,13.5050463 C18.0682357,12.3894648 16.4881413,11.6942745 14.7456302,11.6604276 C11.0292413,11.5877035 7.89658937,14.6333472 7.87077812,18.3485985 C7.84453548,22.0918759 10.8725045,25.1344296 14.6113973,25.1344296 C18.2072857,25.1344296 21.1446637,22.3203962 21.3413756,18.7757446 C21.3465522,18.7312622 21.3500752,17.2292803 21.3500752,17.2292803 L15.2631494,17.2292803 C15.0136646,17.2292803 14.8114884,17.4314273 14.8114884,17.6807156 L14.8114884,19.3352601 C14.8114165,19.5845484 15.0136646,19.7866954 15.2630775,19.7866954 L15.2630775,19.7866954 L15.2630775,19.7866954 Z" id="Shape" fill="#FFFFFF"></path>
                            <path d="M26.9278939,17.3795431 L26.9278939,15.7628699 C26.9278939,15.5443384 26.75081,15.3673429 26.5321693,15.3673429 L25.1708594,15.3673429 C24.9522187,15.3673429 24.774991,15.5443384 24.774991,15.7628699 L24.774991,17.3795431 L23.1578694,17.3795431 C22.9392287,17.3795431 22.7617134,17.5565386 22.7617134,17.7752138 L22.7617134,19.1357 C22.7617134,19.3540878 22.9390849,19.5313707 23.1578694,19.5313707 L24.774991,19.5313707 L24.774991,21.1478284 C24.774991,21.3663599 24.9520749,21.5434991 25.1708594,21.5434991 L26.5321693,21.5434991 C26.75081,21.5434991 26.9278939,21.3663599 26.9278939,21.1478284 L26.9278939,19.5313707 L28.545375,19.5313707 C28.7638719,19.5313707 28.9412434,19.3540878 28.9412434,19.1357 L28.9412434,17.7752138 C28.9412434,17.5566823 28.7638719,17.3795431 28.545375,17.3795431 L26.9278939,17.3795431 L26.9278939,17.3795431 Z" id="Shape" fill="#D1D1D1"></path>
                        </g>
                    </g>
                </g>
            </g>
        </g>
    </g>
</svg>