<?xml version="1.0" encoding="UTF-8" standalone="no"?>
<svg width="25px" height="22px" viewBox="0 0 25 22" version="1.1" xmlns="http://www.w3.org/2000/svg" xmlns:xlink="http://www.w3.org/1999/xlink">
    <!-- Generator: sketchtool 40.3 (33839) - http://www.bohemiancoding.com/sketch -->
    <title>2F7F473B-3B18-465A-AFB5-A285DEED77CB</title>
    <desc>Created with sketchtool.</desc>
    <defs></defs>
    <g id="Page-1" stroke="none" stroke-width="1" fill="none" fill-rule="evenodd">
        <g id="04_Landing" transform="translate(-808.000000, -525.000000)" fill="#AFAFAF">
            <g id="timeline-1" transform="translate(450.000000, 227.000000)">
                <g id="block-1">
                    <path d="M370.033471,301.001499 C370.117625,301.135161 370.295318,301.135804 370.379784,301.002303 C372.178295,298.157439 375.994773,297.194139 378.881963,298.720235 C382.985627,300.888907 383.513856,306.459932 380.46133,309.597695 C377.936877,312.5722 375.117104,315.509871 371.867646,318.555952 C370.935386,319.424515 369.498048,319.40843 368.569229,318.523783 C365.018038,315.177887 362.340137,312.369857 359.886542,309.426555 C357.105873,306.571558 357.398847,301.689432 360.76734,299.209365 C363.597593,297.129318 368.000331,297.773984 370.033471,301.001499 L370.033471,301.001499 Z M360.651276,308.549306 C363.107531,311.452336 365.763376,314.196923 369.290009,317.47885 C369.805255,317.951798 370.651484,317.951798 371.164853,317.484084 C374.385842,314.51127 377.177147,311.642339 379.699567,308.714092 C382.304733,306.070534 381.85534,301.448588 378.405353,299.650689 C375.946126,298.369194 372.657877,299.205021 371.203489,301.768962 C370.795234,302.486631 369.655718,302.49234 369.248402,301.77372 C367.666845,298.982187 363.90089,298.220268 361.374404,300.052425 C358.537737,302.11043 358.282304,306.146345 360.651276,308.549306 Z" id="heart"></path>
                </g>
            </g>
        </g>
    </g>
</svg>