<?xml version="1.0" encoding="UTF-8" standalone="no"?>
<svg width="116px" height="98px" viewBox="0 0 116 98" version="1.1" xmlns="http://www.w3.org/2000/svg" xmlns:xlink="http://www.w3.org/1999/xlink">
    <!-- Generator: sketchtool 40.3 (33839) - http://www.bohemiancoding.com/sketch -->
    <title>E238F8A2-D48C-44AC-A2B1-24D158A0BD77</title>
    <desc>Created with sketchtool.</desc>
    <defs>
        <radialGradient cx="14.9305469%" cy="100.347188%" fx="14.9305469%" fy="100.347188%" r="127.774922%" id="radialGradient-1">
            <stop stop-color="#FFB140" offset="0%"></stop>
            <stop stop-color="#FF5445" offset="25.59%"></stop>
            <stop stop-color="#FC2B82" offset="59.9%"></stop>
            <stop stop-color="#8E40B7" offset="100%"></stop>
        </radialGradient>
        <linearGradient x1="50%" y1="0%" x2="50%" y2="100%" id="linearGradient-2">
            <stop stop-color="#BB38A1" offset="0%"></stop>
            <stop stop-color="#FE4162" offset="100%"></stop>
        </linearGradient>
    </defs>
    <g id="Page-1" stroke="none" stroke-width="1" fill="none" fill-rule="evenodd">
        <g id="02_Sign-Up" transform="translate(-673.000000, -101.000000)">
            <g id="Sign-Up" transform="translate(384.000000, 81.000000)">
                <g id="Instagram_Signup_Logo" transform="translate(289.000000, 20.000000)">
                    <g id="1476706462_Instagram" transform="translate(32.794100, 0.164087)">
                        <g id="Social_Icons">
                            <g id="_x37__stroke">
                                <g id="Instagram_1_">
                                    <rect id="Rectangle-path" x="0" y="0" width="46.7387537" height="46.5882353"></rect>
                                    <path d="M38.6482024,10.8597904 C38.6482024,12.4037537 37.3924636,13.6550846 35.8438772,13.6550846 C34.2952908,13.6550846 33.039552,12.4037537 33.039552,10.8597904 C33.039552,9.31582721 34.2952908,8.06449632 35.8438772,8.06449632 C37.3928287,8.06449632 38.6482024,9.31582721 38.6482024,10.8597904 L38.6482024,10.8597904 Z M23.3693769,31.0587022 C19.0672206,31.0587022 15.5797063,27.5824191 15.5797063,23.2941176 C15.5797063,19.0058162 19.0672206,15.5295331 23.3693769,15.5295331 C27.6715331,15.5295331 31.1590474,19.0058162 31.1590474,23.2941176 C31.1590474,27.5824191 27.6715331,31.0587022 23.3693769,31.0587022 L23.3693769,31.0587022 Z M23.3693769,11.3322243 C16.7416025,11.3322243 11.3688367,16.6876875 11.3688367,23.2941176 C11.3688367,29.9005478 16.7416025,35.256011 23.3693769,35.256011 C29.9971512,35.256011 35.369917,29.9005478 35.369917,23.2941176 C35.369917,16.6876875 29.9971512,11.3322243 23.3693769,11.3322243 L23.3693769,11.3322243 Z M23.3693769,4.19730882 C29.6093656,4.19730882 30.3484222,4.22096691 32.8124308,4.33306985 C35.0909451,4.43680147 36.3284266,4.81605882 37.151832,5.13526103 C38.2425246,5.55783088 39.021017,6.06265809 39.8389452,6.87795221 C40.6568734,7.69288235 41.1633316,8.46886765 41.5872667,9.55641176 C41.9071351,10.3771654 42.2879829,11.6106618 42.3920496,13.8818382 C42.5045148,16.3382757 42.5282493,17.0749522 42.5282493,23.2948456 C42.5282493,29.514739 42.5045148,30.2514154 42.3920496,32.707489 C42.2879829,34.9786654 41.9075002,36.2121618 41.5872667,37.0329154 C41.1633316,38.1200956 40.6568734,38.8960809 39.8389452,39.711375 C39.0213822,40.5266691 38.2428898,41.0314963 37.151832,41.4540662 C36.3284266,41.7729044 35.0909451,42.1525257 32.8124308,42.2562574 C30.3484222,42.3683603 29.6093656,42.3920184 23.3693769,42.3920184 C17.1290229,42.3920184 16.3899664,42.3683603 13.9259577,42.2562574 C11.6474435,42.1525257 10.409962,41.7732684 9.58655656,41.4540662 C8.49586393,41.0314963 7.71737156,40.5266691 6.89944337,39.711375 C6.08188033,38.8964449 5.57505697,38.1204596 5.15112187,37.0329154 C4.83125352,36.2121618 4.45040571,34.9786654 4.34633895,32.707489 C4.23387382,30.2510515 4.2101393,29.514375 4.2101393,23.2948456 C4.2101393,17.0749522 4.23387382,16.3382757 4.34633895,13.8818382 C4.45040571,11.6106618 4.83088837,10.3771654 5.15112187,9.55641176 C5.57505697,8.46923162 6.08151518,7.69324632 6.89944337,6.87795221 C7.71700642,6.06265809 8.49549878,5.55783088 9.58655656,5.13526103 C10.409962,4.81642279 11.6474435,4.43680147 13.9259577,4.33306985 C16.3903315,4.22096691 17.1293881,4.19730882 23.3693769,4.19730882 L23.3693769,4.19730882 Z M23.3693769,0 C17.0227653,0 16.2267459,0.0269338235 13.7342558,0.140128676 C11.2468778,0.253323529 9.54785103,0.647139706 8.06170472,1.22294118 C6.52480305,1.81803309 5.22159514,2.61476471 3.92240385,3.90977206 C2.62321255,5.20477941 1.82390683,6.50379044 1.22689229,8.03574265 C0.649230501,9.51746691 0.254141973,11.2106581 0.140581408,13.6900257 C0.027020842,16.174489 0,16.9679449 0,23.2941176 C0,29.6202904 0.027020842,30.4137463 0.140581408,32.8982096 C0.254141973,35.3775772 0.649230501,37.0707684 1.22689229,38.5524926 C1.82390683,40.0844449 2.62321255,41.3834559 3.92240385,42.6784632 C5.22159514,43.9734706 6.52480305,44.7698382 8.06170472,45.3652941 C9.54821618,45.9410956 11.2468778,46.3349118 13.7342558,46.4481066 C16.2267459,46.5613015 17.0227653,46.5882353 23.3693769,46.5882353 C29.7159884,46.5882353 30.5120078,46.5613015 33.0044979,46.4481066 C35.491876,46.3349118 37.1905375,45.9410956 38.677049,45.3652941 C40.2139507,44.7698382 41.5171586,43.9734706 42.8163499,42.6784632 C44.1155412,41.3834559 44.9144817,40.0844449 45.5118614,38.5524926 C46.0895232,37.0707684 46.4846117,35.3775772 46.5981723,32.8982096 C46.7117329,30.4137463 46.7387537,29.6202904 46.7387537,23.2941176 C46.7387537,16.9679449 46.7117329,16.174489 46.5981723,13.6900257 C46.4846117,11.2106581 46.0895232,9.51746691 45.5118614,8.03574265 C44.9144817,6.50379044 44.1155412,5.20477941 42.8163499,3.90977206 C41.5171586,2.61476471 40.2139507,1.81839706 38.677049,1.22294118 C37.1905375,0.647139706 35.491876,0.253323529 33.0044979,0.140128676 C30.5120078,0.0269338235 29.7159884,0 23.3693769,0 L23.3693769,0 Z" id="Instagram" fill="url(#radialGradient-1)"></path>
                                </g>
                            </g>
                        </g>
                    </g>
                    <path d="M15.4228627,60.6718514 C15.4228627,60.430282 15.3440997,60.2611855 15.1865724,60.1645573 C15.0290451,60.0679291 14.8654595,60.0075384 14.6958155,59.9833808 L12.15115,59.8022043 C11.9330358,59.7297337 11.7391562,59.6934985 11.5695122,59.6934985 C11.1332838,59.6934985 10.7091727,59.8505173 10.2971794,60.1645573 C9.88518615,60.4785972 9.49742742,60.8892632 9.13390378,61.3965573 C8.77038014,61.9038514 8.43109159,62.4775761 8.11603758,63.1177337 C7.80098358,63.757856 7.53439976,64.4100913 7.31628558,65.0744396 C7.09817139,65.7387537 6.92852684,66.3789102 6.80735248,66.9949102 C6.68617812,67.6109102 6.62559066,68.1484008 6.62559066,68.6073808 L6.62559066,69.8756161 C6.62559066,70.4795373 6.72858884,71.1317726 6.93458575,71.832322 C7.14058267,72.5328714 7.45563612,73.1851067 7.87974722,73.7890279 C8.30385832,74.3929496 8.83702595,74.8942043 9.47925123,75.2927926 C10.1214765,75.6913808 10.8788172,75.8906749 11.751274,75.8906749 L12.2965594,75.8544396 C12.2965594,76.5066749 12.1753845,77.2011849 11.9330358,77.937969 C11.6906871,78.6747515 11.321104,79.3571833 10.8242887,79.9852632 C10.3274812,80.613342 9.7034321,81.1327143 8.95214196,81.5433808 C8.20085958,81.9540473 7.31628558,82.1593808 6.29841938,82.1593808 C5.13514374,82.1593808 4.16574773,81.9057337 3.39023026,81.3984396 C2.61471335,80.8911455 2.22695462,80.0577337 2.22695462,78.8982043 C2.22695462,78.5116949 2.33601171,78.1855773 2.55412589,77.9198514 C2.77224008,77.6541349 3.00853044,77.3884096 3.26299699,77.1226749 C3.51746354,76.8569601 3.7537539,76.5549995 3.97186809,76.2167926 C4.18998227,75.8786028 4.29903936,75.431701 4.29903936,74.8760867 C4.29903936,74.6345179 4.23845246,74.3989885 4.11727754,74.1694985 C3.99610374,73.9400084 3.71740265,73.8252632 3.28117317,73.8252632 C2.82071026,73.8252632 2.40871644,73.9400084 2.0451928,74.1694985 C1.68166916,74.3989885 1.37267406,74.7009496 1.11820751,75.0753808 C0.863740966,75.449812 0.669861876,75.8846355 0.53656969,76.3798514 C0.403277503,76.8750645 0.336631687,77.388398 0.336631687,77.9198514 C0.336631687,78.5479302 0.421453685,79.2062043 0.591098236,79.8946749 C0.760742786,80.5831455 1.08791406,81.2172632 1.57261206,81.7970279 C2.05731007,82.3767926 2.7298288,82.8538908 3.59016827,83.228322 C4.45050718,83.6027532 5.5713721,83.789969 6.95276194,83.789969 L7.42534267,83.789969 C9.02484668,83.789969 10.3395907,83.5302826 11.3695742,83.0109102 C12.3995582,82.4915379 13.2114269,81.7909885 13.8051826,80.9092632 C14.3989382,80.0275373 14.8169904,79.018989 15.0593391,77.8836161 C15.3016878,76.7482437 15.4228627,75.5645573 15.4228627,74.3325573 L15.4228627,62.3386749 C15.3259235,61.976322 15.2774533,61.6502043 15.2774533,61.360322 C15.2774533,61.1187526 15.2956295,60.9496561 15.3319818,60.8530279 C15.3683342,60.7563997 15.3986282,60.696009 15.4228627,60.6718514 L15.4228627,60.6718514 Z M12.2965594,65.0200867 L12.2965594,73.4991455 C12.1753901,73.5474591 11.9996866,73.5836943 11.7694502,73.6078514 C11.5392936,73.6320084 11.3999425,73.6440867 11.351398,73.6440867 C10.7939953,73.6440867 10.351708,73.4266749 10.0245367,72.9918514 C9.69736542,72.5570279 9.44289887,72.0497337 9.26113705,71.469969 C9.07937523,70.8902043 8.96425923,70.3044008 8.91578959,69.7125573 C8.86731996,69.1207138 8.84308486,68.6677726 8.84308486,68.3537337 C8.84308486,67.9430667 8.87943723,67.4116161 8.95214196,66.7593808 C9.02484668,66.1071455 9.15207996,65.4790667 9.33384178,64.8751455 C9.5156036,64.2712243 9.77612906,63.7518514 10.1154176,63.3170279 C10.4547062,62.8822043 10.8909345,62.6647926 11.4241027,62.6647926 C11.8360965,62.6647926 12.120856,62.7916161 12.2783833,63.0452632 C12.4359105,63.2989102 12.5146736,63.5827526 12.5146736,63.8967926 C12.5146736,64.0417337 12.5025558,64.1745961 12.4783213,64.2953808 L12.4056165,64.6577337 C12.3571463,64.7782508 12.320794,64.8990355 12.2965594,65.0200867 L12.2965594,65.0200867 Z M23.7475541,74.4412632 L23.6748494,77.0864396 C23.6748494,78.632479 23.8263177,79.7980478 24.1292539,80.5831455 C24.4321901,81.3682437 25.1289439,81.7607926 26.2195149,81.7607926 C26.8980925,81.7607926 27.4857892,81.5796161 27.9826045,81.2172632 C28.4794198,80.8549102 28.8792958,80.4080084 29.1822325,79.8765573 C29.4851693,79.3451078 29.7154002,78.7774219 29.8729274,78.1734985 C30.0304547,77.5695767 30.1213356,77.0260473 30.1455702,76.5429102 L30.1455702,76.4704396 C30.1455702,76.2771849 30.1092178,76.1080867 30.0365131,75.9631455 C29.9638084,75.8182043 29.8183989,75.7457337 29.6002847,75.7457337 C29.2852313,75.7457337 29.1034694,75.9752238 29.0549993,76.4342043 C29.0065291,76.7965573 28.927766,77.1830673 28.8187089,77.5937337 C28.7096518,78.0044008 28.5703007,78.3909102 28.4006567,78.7532632 C28.2310127,79.1156161 28.0310747,79.4175773 27.8008427,79.6591455 C27.5706484,79.9007138 27.3222402,80.0214985 27.0556192,80.0214985 C26.6920956,80.0214985 26.4497463,79.7678514 26.328572,79.2605573 C26.2073976,78.7532632 26.1468101,78.1855773 26.1468101,77.5574985 C26.1468101,76.4462826 26.1710452,75.6128708 26.2195149,75.0572632 C26.2679845,74.5016555 26.2922196,74.1030673 26.2922196,73.8614985 C26.2922196,73.5474591 26.2801023,73.2032238 26.2558672,72.8287926 C26.2316321,72.4543608 26.1589274,72.1101255 26.037753,71.7960867 C25.9165787,71.4820888 25.7408752,71.2224028 25.5106438,71.0170279 C25.2804123,70.8116949 24.9471821,70.7090279 24.5109538,70.7090279 C24.1716652,70.7090279 23.838435,70.9143608 23.5112637,71.3250279 C23.1840925,71.7356949 22.8750974,72.2309102 22.5842785,72.8106749 C22.2934595,73.3904396 22.0268752,74.0004002 21.7845265,74.6405573 C21.5421777,75.2807143 21.3361803,75.8182043 21.1665363,76.2530279 C21.1180661,76.397969 21.0817137,76.4945967 21.0574792,76.5429102 L21.0574792,69.2233808 L21.0574792,69.1871455 C21.0574792,69.0422043 20.9726566,68.9153808 20.8030126,68.8066749 C20.6333686,68.697969 20.4273712,68.6073808 20.1850224,68.5349102 C19.9426737,68.4624396 19.7063828,68.4080867 19.4761513,68.3718514 C19.2459199,68.3356161 19.0823342,68.3174985 18.9853944,68.3174985 C18.6461059,68.3174985 18.4764613,68.4745184 18.4764613,68.7885573 L18.0038806,79.5504396 C18.0523502,80.1785184 18.1129377,80.6797731 18.1856424,81.0542043 C18.2583471,81.4286355 18.3674042,81.7064396 18.5128137,81.8876161 C18.6582231,82.0687926 18.8702784,82.1835379 19.1489801,82.2318514 C19.4276817,82.2801649 19.7851464,82.304322 20.2213748,82.304322 C20.2940795,82.304322 20.3970783,82.2982826 20.5303699,82.2862043 C20.663656,82.2741261 20.7969476,82.2560084 20.9302459,82.2318514 C21.0635375,82.2076943 21.1847124,82.1714591 21.2937695,82.1231455 C21.4028266,82.074832 21.469473,82.0144396 21.4937075,81.941969 C21.6148825,81.3380473 21.7360563,80.7039302 21.8572312,80.0396161 C21.9784061,79.375302 22.1177561,78.7170279 22.2752834,78.0647926 C22.4328057,77.4125573 22.6266847,76.7724002 22.8569212,76.144322 C23.0871526,75.5162437 23.3840305,74.9485573 23.7475541,74.4412632 L23.7475541,74.4412632 Z M37.9249761,80.093969 C37.9249761,79.6349901 37.6402161,79.1397748 37.0706955,78.608322 C36.501175,78.0768714 35.8710675,77.5454202 35.1803726,77.013969 C34.4896777,76.4825179 33.8595702,75.9510673 33.2900497,75.4196161 C32.7205297,74.8881649 32.4357691,74.3808708 32.4357691,73.8977337 C32.4357691,73.3421432 32.6054131,72.8167315 32.9447022,72.3214985 C33.2839913,71.8262831 33.8777464,71.5786749 34.725968,71.5786749 C34.8956126,71.5786749 35.0470804,71.6209491 35.1803726,71.7054985 C35.3136648,71.7900478 35.440898,71.8866749 35.5620724,71.9953808 C35.6832468,72.1040867 35.7923039,72.2007138 35.8892437,72.2852632 C35.9861835,72.3698125 36.0831228,72.4120867 36.1800626,72.4120867 C36.4951166,72.4120867 36.7677593,72.3094197 36.9979908,72.1040867 C37.2282222,71.8987537 37.4099841,71.6632243 37.5432762,71.3974985 C37.6765684,71.1317726 37.7735077,70.8600079 37.8340952,70.5822043 C37.8946826,70.3044008 37.9249761,70.0930279 37.9249761,69.9480867 C37.9249761,69.4649491 37.7189792,69.1388314 37.3069859,68.9697337 C36.8949926,68.8006361 36.4829988,68.7160867 36.0710055,68.7160867 C35.6347771,68.7160867 35.0289042,68.7885573 34.2533873,68.9334985 C33.4778704,69.0784396 32.7205297,69.3260478 31.9813646,69.676322 C31.2422006,70.0265961 30.5999758,70.4855773 30.0546893,71.0532632 C29.5094038,71.6209491 29.2367611,72.3275373 29.2367611,73.1730279 C29.2367611,73.8011061 29.3761116,74.3627532 29.6548133,74.857969 C29.9335149,75.3531716 30.2849207,75.8121522 30.7090318,76.2349102 C31.1331424,76.6576555 31.5875469,77.0502043 32.0722455,77.4125573 C32.556944,77.7749102 33.0113486,78.1251844 33.4354591,78.4633808 C33.8595702,78.8015773 34.210976,79.1276949 34.4896777,79.4417337 C34.7683793,79.7557726 34.9077299,80.0818908 34.9077299,80.4200867 C34.9077299,80.7582826 34.7441442,80.993812 34.4169729,81.1266749 C34.0898017,81.2595379 33.8292762,81.325969 33.6353971,81.325969 C33.1991687,81.325969 32.8114106,81.2293414 32.4721215,81.0360867 C32.1328324,80.842832 31.8238373,80.6374985 31.5451362,80.4200867 C31.2664351,80.2026749 30.9998507,79.997342 30.7453842,79.8040867 C30.4909176,79.6108314 30.2303922,79.5142043 29.9638084,79.5142043 C29.7699293,79.5142043 29.5699913,79.5685573 29.3639943,79.6772632 C29.1579974,79.785969 29.0549993,79.9731844 29.0549993,80.2389102 C29.0549993,80.6737337 29.2185849,81.0360867 29.5457562,81.325969 C29.8729274,81.6158514 30.2728034,81.839302 30.7453842,81.996322 C31.2179649,82.1533414 31.7026635,82.2680867 32.1994787,82.3405573 C32.696294,82.4130279 33.1143462,82.4492632 33.4536353,82.4492632 C33.6717495,82.4492632 34.0292142,82.4311455 34.52603,82.3949102 C35.0228459,82.3586749 35.5196611,82.2680867 36.016477,82.1231455 C36.5132928,81.9782043 36.9555795,81.7487143 37.3433382,81.4346749 C37.731097,81.1206355 37.9249761,80.6737337 37.9249761,80.093969 L37.9249761,80.093969 Z M60.7795399,78.1089423 L60.7542607,78.2097337 C60.6573214,78.5962432 60.5300881,78.9767138 60.3725608,79.3511455 C60.2151345,79.7255773 60.0212549,80.0577337 59.790923,80.3476161 C59.560691,80.6374985 59.3001661,80.7824396 59.0093472,80.7824396 C58.7427628,80.7824396 58.5246486,80.6676943 58.3550046,80.4382043 C58.1853606,80.2087143 58.0520679,79.9248714 57.9551286,79.5866749 C57.8581894,79.2484785 57.7976014,78.8740478 57.7733668,78.4633808 C57.7491323,78.0527138 57.7370145,77.6782826 57.7370145,77.3400867 C57.7370145,76.6636943 57.761249,76.0839296 57.8097192,75.6007926 C57.8581894,75.1176621 58.0035988,74.5620545 58.2459475,73.933969 L58.2459475,73.7890279 C58.2459475,73.6199296 58.191419,73.4810279 58.0823619,73.372322 C57.9733048,73.2636161 57.8521299,73.1790673 57.7188383,73.1186749 C57.5855466,73.0582831 57.4583134,73.009969 57.3371384,72.9737337 C57.2159635,72.9374985 57.1553766,72.8952243 57.1553766,72.8469102 C57.0826719,72.3879302 57.0584374,71.9047926 57.0826719,71.3974985 C57.1069064,70.8902043 57.0887303,70.4070667 57.0281434,69.9480867 C56.9675565,69.4891067 56.8342637,69.060322 56.6282673,68.6617337 C56.422271,68.2631455 56.0648057,67.9189102 55.5558726,67.6290279 C55.0711746,67.5565573 54.707651,67.4599302 54.4653017,67.3391455 L53.7746068,66.9949102 C53.5564926,66.8862043 53.3202022,66.7895773 53.0657357,66.7050279 C52.8112691,66.6204785 52.4416866,66.5782043 51.9569886,66.5782043 C51.1087664,66.5782043 50.3998953,66.8741255 49.8303753,67.465969 C49.2608547,68.0578125 48.7943329,68.854989 48.4308093,69.8574985 C48.0672856,70.8600079 47.8067602,72.0134985 47.6492334,73.317969 C47.5629055,74.0328462 47.5002322,74.7694882 47.4612137,75.5278951 C47.4571627,75.5339499 47.45319,75.5401314 47.4492954,75.5464396 C47.3523556,75.7034591 47.2675336,75.9631455 47.1948289,76.3254985 C47.0736545,76.9535767 46.9282451,77.5514591 46.7586005,78.1191455 C46.588956,78.6868314 46.3950769,79.2001655 46.1769627,79.6591455 C45.9588485,80.1181261 45.7164992,80.480479 45.4499154,80.7462043 C45.1833316,81.0119296 44.8925127,81.1447926 44.5774587,81.1447926 C44.3593445,81.1447926 44.1715238,81.0360867 44.013997,80.8186749 C43.8564703,80.6012632 43.729237,80.3174202 43.6322972,79.9671455 C43.5353574,79.6168714 43.4626527,79.224322 43.414183,78.7894985 C43.3657134,78.3546749 43.3414783,77.9077726 43.3414783,77.4487926 C43.3414783,76.2409524 43.3535956,75.0874624 43.3778307,73.988322 C43.4020658,72.8891844 43.4323592,71.9168714 43.4687116,71.0713808 C43.5050639,70.2258902 43.5414163,69.5434596 43.5777687,69.0240867 C43.614121,68.5047138 43.6444145,68.2208714 43.6686496,68.1725573 C43.7171192,68.076148 43.9412923,67.9976386 44.3411683,67.9370279 C44.7410443,67.8766361 45.1833316,67.8222831 45.6680296,67.773969 C46.1527276,67.7256549 46.6071322,67.6894197 47.0312433,67.6652632 C47.4553544,67.6411067 47.7279971,67.6290279 47.8491714,67.6290279 C48.2126951,67.6290279 48.4368676,67.6652632 48.5216902,67.7377337 C48.6065127,67.8102043 48.673158,67.8464396 48.7216282,67.8464396 C48.7943329,67.8464396 48.8549198,67.7920867 48.90339,67.6833808 C48.9518602,67.5746749 48.9760947,67.4961655 48.9760947,67.4478514 C48.9760947,66.9647138 48.703452,66.6567138 48.1581665,66.5238514 C47.6128811,66.3912323 47.0070082,66.3127229 46.3405483,66.288322 C45.6740885,66.2641655 45.0682156,66.2460478 44.5229301,66.233969 C43.9776447,66.2218902 43.7050019,66.0950667 43.7050019,65.8534985 L44.1048779,61.1429102 C44.1048779,60.997969 43.9776447,60.8651056 43.7231781,60.744322 C43.4687116,60.6242019 43.1718338,60.521536 42.8325452,60.436322 C42.4932561,60.3524438 42.1660848,60.2860132 41.8510314,60.2370279 C41.5359779,60.1887149 41.3178637,60.1645573 41.1966888,60.1645573 C41.0997496,60.1645573 41.0209854,60.3094985 40.9603985,60.5993808 C40.8998116,60.8892632 40.8573997,61.2576561 40.8331652,61.7045573 C40.8089301,62.1514585 40.7907539,62.6285573 40.7786366,63.1358514 C40.7665194,63.6431455 40.7544015,64.1202432 40.7422843,64.5671455 C40.730167,65.0140478 40.699873,65.3824396 40.6514034,65.672322 C40.6029337,65.9622043 40.5423463,66.1071455 40.4696415,66.1071455 C39.2336612,66.1071455 38.300617,66.131302 37.6705095,66.1796161 C37.040401,66.2279302 36.7253469,66.4091067 36.7253481,66.7231455 C36.7253481,67.0854985 36.9252861,67.3451844 37.3251621,67.5022043 C37.7250381,67.6592243 38.1612664,67.773969 38.6338472,67.8464396 C39.1064279,67.9189102 39.5365974,67.9913808 39.9243561,68.0638514 C40.3121148,68.136322 40.5059939,68.2691844 40.5059939,68.4624396 C40.4575243,69.5494985 40.4090541,70.7392243 40.3605845,72.0316161 C40.3121148,73.3240084 40.2757625,74.5741261 40.2515274,75.781969 L40.2515274,76.1080867 C40.2515274,77.1468298 40.330291,78.1191433 40.4878177,79.0250279 C40.6453445,79.9309097 40.8876937,80.7160079 41.214865,81.380322 C41.5420363,82.0446355 41.9540301,82.5640084 42.4508454,82.9384396 C42.9476607,83.3128708 43.5232401,83.5000867 44.1775827,83.5000867 C44.8561603,83.5000867 45.4499154,83.2222826 45.9588485,82.6666749 C46.4677816,82.1110673 46.8979511,81.4648708 47.2493574,80.7280867 C47.395939,80.4207528 47.5298703,80.1113175 47.6511512,79.7997806 C47.7596375,80.330964 47.9104663,80.8276151 48.103638,81.2897337 C48.3459873,81.8694985 48.6670996,82.3465967 49.0669756,82.7210279 C49.4668516,83.0954591 49.9576086,83.2826749 50.5392464,83.2826749 C50.9270046,83.306832 51.1754127,83.3491061 51.2844698,83.4094985 C51.3935269,83.4698908 51.5813471,83.5121649 51.8479315,83.536322 C52.3568646,83.5363214 52.7991519,83.3853409 53.1747928,83.0833808 C53.5504337,82.7814202 53.8836639,82.4130279 54.1744828,81.9782043 C54.4653017,81.5433808 54.707651,81.0783614 54.9015301,80.5831455 C55.0954091,80.0879296 55.2650537,79.634989 55.4104632,79.224322 C55.5316375,80.2147537 55.8648677,80.9938125 56.4101532,81.5614985 C56.9554386,82.1291849 57.591605,82.4130279 58.3186523,82.4130279 C58.7791152,82.4130279 59.2153436,82.2680867 59.6273374,81.9782043 C60.0393312,81.688322 60.3967954,81.3320084 60.6997321,80.9092632 C60.8255762,80.733649 60.9420101,80.5549084 61.0490342,80.3730412 C61.1456423,80.7854849 61.2715574,81.1574804 61.4267794,81.4890279 C61.6812459,82.0325573 62.0326523,82.4673808 62.480998,82.7934985 C62.9293441,83.1196161 63.4928058,83.306832 64.1713829,83.3551455 C64.4379673,83.3551455 64.6439636,83.3913808 64.7893731,83.4638514 C64.9347825,83.536322 65.1044271,83.5725573 65.2983062,83.5725573 C65.6618298,83.5725573 65.9890011,83.4457337 66.27982,83.1920867 C66.5706389,82.9384396 66.8311644,82.6425179 67.0613958,82.304322 C67.2916273,81.9661261 67.4915653,81.609812 67.6612098,81.2353808 C67.8308544,80.8609496 67.9762638,80.5650279 68.0974382,80.3476161 C68.0974382,80.8790673 68.0853209,81.3984396 68.0610858,81.9057337 C68.0368507,82.4130279 68.0004984,82.920322 67.9520287,83.4276161 L67.9520287,83.4638514 C67.6854449,83.6571061 67.3764498,83.9047143 67.0250435,84.2066749 C66.6736371,84.5086355 66.3525247,84.8045573 66.0617058,85.0944396 C65.5043031,85.6500478 64.9893111,86.2841655 64.5167303,86.9967926 C64.0441496,87.7094213 63.6382152,88.4582842 63.2989261,89.2433808 C62.959637,90.028479 62.6991121,90.8377337 62.5173503,91.6711455 C62.3355885,92.5045573 62.2447076,93.3198514 62.2447076,94.1170279 C62.2447076,94.9142043 62.4204105,95.548322 62.7718169,96.0193808 C63.1232227,96.4904396 63.5715689,96.8467537 64.1168543,97.088322 C64.6621398,97.3298902 65.2619538,97.4808714 65.9162964,97.5412632 C66.5706389,97.6016549 67.2128642,97.6318514 67.8429716,97.6318514 C68.5215493,97.6318514 69.0668348,97.4084008 69.478828,96.9614985 C69.8908219,96.5145961 70.2058753,95.9227537 70.4239895,95.185969 C70.6421037,94.4491844 70.7814548,93.6157726 70.8420417,92.6857337 C70.9026286,91.7556949 70.9329226,90.8075379 70.9329226,89.8412632 L70.9329226,86.9786749 C70.9329226,85.9882432 70.9208048,85.1669102 70.8965702,84.5146749 L70.9329226,84.0798514 C70.9329226,83.9349102 70.9935095,83.8624396 71.1146844,83.8624396 L71.8417317,83.9349102 C72.0356113,83.9349102 72.2416077,83.8865967 72.4597219,83.789969 C72.6778361,83.6933414 72.7868931,83.5242437 72.7868931,83.2826749 C72.7868931,83.1377337 72.7323646,83.0169496 72.6233075,82.920322 C72.5142504,82.8236943 72.3809588,82.7451849 72.2234315,82.6847926 C72.0659042,82.6244002 71.9023186,82.5760867 71.7326746,82.5398514 C71.5630306,82.5036161 71.4297379,82.4854985 71.3327986,82.4854985 C71.2843284,82.4854985 71.2419177,82.4915379 71.2055653,82.5036161 C71.169213,82.5156943 71.1268022,82.5217337 71.078332,82.5217337 L70.9329226,82.5217337 C70.908688,82.1835379 70.8965702,81.7547532 70.8965702,81.2353808 L70.8965702,79.9852632 C70.8965702,79.5745961 70.9026286,79.1095773 70.9147464,78.5902043 C70.9268642,78.0708314 70.9450404,77.5635379 70.9692749,77.068322 C70.9935095,76.5731061 71.0298619,76.1141261 71.078332,75.6913808 C71.1268022,75.2686355 71.1873891,74.9606355 71.2600939,74.7673808 C71.2843284,74.7190673 71.3509748,74.604322 71.4600319,74.4231455 C71.569089,74.241969 71.6236175,74.1272238 71.6236175,74.0789102 C71.6236175,73.909812 71.5509128,73.7890279 71.4055033,73.7165573 C71.2600939,73.6440867 71.0965082,73.5836943 70.9147464,73.5353808 C70.7329846,73.4870673 70.5693989,73.4266749 70.4239895,73.3542043 C70.27858,73.2817337 70.2058753,73.1488708 70.2058753,72.9556161 C70.2058753,72.4724785 70.2361693,72.0738902 70.2967562,71.7598514 C70.3573431,71.4458546 70.3876371,71.0955804 70.3876371,70.7090279 C70.3876371,70.1534197 70.3028146,69.6884008 70.1331706,69.313969 C69.9635266,68.9395373 69.7332946,68.6375773 69.4424757,68.4080867 C69.1516567,68.1785961 68.8002504,67.9913808 68.3882571,67.8464396 C67.9762638,67.7014985 67.5279176,67.5807138 67.0432196,67.4840867 C66.9220453,67.4599302 66.7766358,67.4116161 66.6069913,67.3391455 C66.4373467,67.2666749 66.2616438,67.1821255 66.079882,67.0854985 C65.8981202,66.9888714 65.7284756,66.904322 65.5709489,66.8318514 C65.4134222,66.7593808 65.2861889,66.7231455 65.1892491,66.7231455 C64.3167923,66.7231455 63.5958034,67.0432243 63.0262834,67.6833808 C62.4567629,68.3235373 62.0023583,69.1448714 61.6630698,70.1473808 C61.3237812,71.1498902 61.0874909,72.2550667 60.9541987,73.4629102 C60.8209065,74.6707532 60.7542607,75.8423614 60.7542607,76.9777337 C60.7542607,77.370552 60.7626871,77.7476215 60.7795399,78.1089423 Z M55.0832919,72.5207926 L55.0832919,72.8469102 C55.0832919,72.8952243 54.9984699,72.9737337 54.8288253,73.0824396 C54.6591808,73.1911455 54.5501237,73.450832 54.5016541,73.8614985 C54.4289493,74.6345179 54.3501857,75.4860473 54.2653637,76.4160867 C54.1805417,77.3461239 54.0351322,78.2157709 53.8291353,79.0250279 C53.6231384,79.834282 53.3323195,80.5106744 52.9566786,81.0542043 C52.5810377,81.5977337 52.0539284,81.8694985 51.3753508,81.8694985 C51.0845318,81.8694985 50.8482415,81.7004008 50.6664797,81.3622043 C50.4847178,81.024009 50.3453667,80.6133425 50.2484275,80.1302043 C50.1514882,79.6470667 50.0848418,79.1397726 50.0484895,78.608322 C50.0121371,78.0768752 49.9939609,77.6058164 49.9939609,77.1951455 C49.9939609,76.6636943 50.0303133,75.9631455 50.103018,75.0934985 C50.1757227,74.2238514 50.33325,73.372322 50.5755987,72.5389102 C50.8179475,71.7054985 51.1451187,70.9807926 51.5571126,70.3647926 C51.9691009,69.7487926 52.5265036,69.4407926 53.2293213,69.4407926 C53.61708,69.4407926 53.9381924,69.5494985 54.192659,69.7669102 C54.4471255,69.984322 54.6349462,70.2500478 54.7561206,70.5640867 C54.8772345,70.8781255 54.9620565,71.216322 55.0105872,71.5786749 C55.0590568,71.9410279 55.0832919,72.2550667 55.0832919,72.5207926 Z M68.1337906,72.085969 C68.1337906,72.3033808 68.1156144,72.5449491 68.079262,72.8106749 C68.0429096,73.0764002 67.9520287,73.3058908 67.8066193,73.4991455 C67.7581496,73.5716161 67.7096795,73.7346749 67.6612098,73.988322 C67.6127402,74.241969 67.5763878,74.7190673 67.5521527,75.4196161 C67.5279742,75.9269102 67.4492106,76.5247926 67.3158624,77.2132632 C67.1825702,77.9017337 66.9826322,78.5660478 66.7160484,79.2062043 C66.4494645,79.8463608 66.1283516,80.3838514 65.7527107,80.8186749 C65.3770698,81.2534985 64.9347825,81.4709102 64.4258494,81.4709102 C64.1350305,81.4709102 63.8987402,81.325969 63.7169783,81.0360867 C63.5352165,80.7462043 63.4019249,80.3838514 63.3171023,79.9490279 C63.2322798,79.5142043 63.1716929,79.0250279 63.1353405,78.4814985 C63.0989881,77.937969 63.080812,77.4125573 63.080812,76.9052632 C63.080812,75.7215767 63.1716929,74.6465967 63.3534547,73.680322 C63.5352165,72.7140478 63.7775652,71.8987537 64.080502,71.2344396 C64.3834387,70.5701255 64.7348445,70.0567926 65.1347205,69.6944396 C65.5345965,69.3320867 65.964766,69.1509102 66.4252294,69.1509102 C66.764518,69.1509102 67.0432196,69.2535773 67.2613338,69.4589102 C67.479448,69.6642432 67.6551509,69.9178902 67.7884431,70.2198514 C67.9217353,70.5217672 68.0126162,70.841846 68.0610858,71.1800867 C68.1095555,71.5182422 68.1337906,71.8202034 68.1337906,72.085969 L68.1337906,72.085969 Z M96.4212726,80.0410052 C96.2679482,80.3384518 96.0904644,80.627871 95.8888205,80.9092632 C95.5858837,81.3320084 95.2284196,81.688322 94.8164257,81.9782043 C94.4044319,82.2680867 93.9682035,82.4130279 93.5077406,82.4130279 C92.7806934,82.4130279 92.144527,82.1291849 91.5992415,81.5614985 C91.0539561,80.9938125 90.7207259,80.2147537 90.5995515,79.224322 C90.4541421,79.634989 90.2844975,80.0879296 90.0906184,80.5831455 C89.8967393,81.0783614 89.65439,81.5433808 89.3635711,81.9782043 C89.0727522,82.4130279 88.739522,82.7814202 88.3638811,83.0833808 C87.9882402,83.3853409 87.5459529,83.5363214 87.0370198,83.536322 C86.7704355,83.5121649 86.5826153,83.4698908 86.4735582,83.4094985 C86.3645011,83.3491061 86.1160929,83.306832 85.7283347,83.2826749 C85.1466969,83.2826749 84.65594,83.0954591 84.256064,82.7210279 C83.856188,82.3465967 83.5350756,81.8694985 83.2927263,81.2897337 C83.1654498,80.9852541 83.0565552,80.6657832 82.9660423,80.3313211 C82.9480865,80.3788638 82.9297479,80.42657 82.9110265,80.4744396 C82.6323254,81.1870673 82.256684,81.8211849 81.7841032,82.3767926 C81.3115225,82.9324002 80.7117085,83.2102043 79.9846612,83.2102043 C79.2091443,83.2102043 78.5911541,82.9384396 78.1306907,82.3949102 C77.6702272,81.8513808 77.3188208,81.1991455 77.0764721,80.4382043 C76.8341234,79.6772632 76.6765961,78.8800867 76.6038914,78.0466749 C76.5311866,77.2132632 76.4948343,76.5187532 76.4948343,75.9631455 C76.4948343,75.3350673 76.5311866,74.7009496 76.6038914,74.0607926 C76.6765961,73.4206184 76.7250663,72.7865007 76.7493008,72.1584396 C76.7493008,71.9651799 76.6523616,71.8443953 76.4584819,71.7960867 C76.2646023,71.7477726 76.0828404,71.7236161 75.9131965,71.7236161 C75.6223775,71.7236161 75.4406157,71.7598514 75.367911,71.832322 C75.2952063,71.9047926 75.2467366,71.989342 75.2225015,72.085969 L75.0770921,73.2454985 C74.9801523,74.0185179 74.8771541,74.7613414 74.768097,75.473969 C74.6590399,76.1865967 74.5378655,76.8146749 74.4045733,77.3582043 C74.2712812,77.9017337 74.1137544,78.3365573 73.9319926,78.6626749 C73.7502308,78.9887926 73.5381755,79.1518514 73.2958262,79.1518514 L73.2594739,79.1518514 C73.1625341,79.1518514 73.0716531,79.1276949 72.9868312,79.0793808 C72.9020092,79.0310545 72.8595979,78.9102699 72.8595979,78.7170279 C72.8595979,78.5720867 72.883833,78.4271455 72.9323026,78.2822043 C73.1261817,77.4367143 73.2473566,76.7361649 73.2958262,76.1805573 C73.3442959,75.6249496 73.3806482,75.1297337 73.4048833,74.6949102 L73.4048833,74.4412632 C73.4048833,74.320479 73.4109423,74.1755379 73.4230595,74.0064396 C73.4351768,73.8373088 73.4412357,73.6319753 73.4412357,73.3904396 L73.4412357,72.1946749 C73.4412357,71.7356949 73.4170006,71.2284008 73.368531,70.6727926 L73.2594739,68.5349102 C73.2594739,68.389969 73.3200613,68.2571067 73.4412357,68.136322 C73.5624106,68.0155373 73.7199373,67.9068314 73.9138164,67.8102043 C74.1076955,67.7135773 74.3136924,67.6411067 74.5318066,67.5927926 C74.7499208,67.5444785 74.9437999,67.520322 75.1134444,67.520322 C75.3800333,67.520322 75.5557367,67.6169491 75.6405537,67.8102043 C75.7254184,68.0034596 75.7557124,68.2329491 75.7314346,68.4986749 L75.6950823,69.2958514 C75.6708477,69.5615773 75.6890239,69.7246361 75.7496108,69.7850279 C75.8101977,69.8454197 75.9737834,69.8997726 76.2403677,69.9480867 L76.3494248,69.9480867 C76.5433045,69.9724323 76.8583579,69.9965888 77.2945863,70.0205573 C77.7308147,70.0447138 78.167043,70.0930279 78.6032714,70.1654985 C79.0394998,70.237969 79.4211996,70.3527138 79.7483709,70.5097337 C80.0755421,70.6667537 80.2391278,70.8902043 80.2391278,71.1800867 C80.2391278,71.3008714 80.2148927,71.4458125 80.166423,71.6149102 C80.1179534,71.7840079 80.0634249,71.9591455 80.0028374,72.140322 C79.9422499,72.3214985 79.881663,72.4845573 79.8210756,72.6294985 C79.7604881,72.7744396 79.7301947,72.8710667 79.7301947,72.9193808 C79.2939663,74.5862043 79.0758521,76.3254985 79.0758521,78.1372632 C79.0758521,78.2822043 79.0879694,78.5479302 79.1122045,78.9344396 C79.1364396,79.3209491 79.1849092,79.7195373 79.2576139,80.1302043 C79.3303187,80.5408708 79.4393758,80.9032238 79.5847852,81.2172632 C79.7301947,81.5313026 79.9119565,81.688322 80.1300707,81.688322 C80.4935943,81.688322 80.8207656,81.4648708 81.1115845,81.017969 C81.4024034,80.5710673 81.65687,80.0516949 81.8749842,79.4598514 C82.0930983,78.8680079 82.2688018,78.2701255 82.4020934,77.6662043 C82.4894594,77.2703637 82.5586052,76.9419813 82.6095306,76.6810568 C82.6325946,75.5110781 82.7088584,74.3900489 82.8383218,73.317969 C82.9958485,72.0134985 83.256374,70.8600079 83.6198976,69.8574985 C83.9834213,68.854989 84.4499431,68.0578125 85.0194636,67.465969 C85.5889836,66.8741255 86.2978547,66.5782043 87.1460769,66.5782043 C87.6307749,66.5782043 88.0003575,66.6204785 88.254824,66.7050279 C88.5092906,66.7895773 88.7455809,66.8862043 88.9636951,66.9949102 L89.65439,67.3391455 C89.8967393,67.4599302 90.260263,67.5565573 90.744961,67.6290279 C91.2538941,67.9189102 91.6113593,68.2631455 91.8173557,68.6617337 C92.0233521,69.060322 92.1566448,69.4891067 92.2172317,69.9480867 C92.2778186,70.4070667 92.2959948,70.8902043 92.2717603,71.3974985 C92.2475257,71.9047926 92.2717603,72.3879302 92.344465,72.8469102 C92.344465,72.8952243 92.4050519,72.9374985 92.5262268,72.9737337 C92.6474017,73.009969 92.774635,73.0582831 92.9079266,73.1186749 C93.0412183,73.1790673 93.1623932,73.2636161 93.2714503,73.372322 C93.3805074,73.4810279 93.4350359,73.6199296 93.4350359,73.7890279 L93.4350359,73.933969 C93.1926872,74.5620545 93.0472777,75.1176621 92.9988075,75.6007926 C92.9503373,76.0839296 92.9261028,76.6636943 92.9261028,77.3400867 C92.9261028,77.6782826 92.9382206,78.0527138 92.9624552,78.4633808 C92.9866897,78.8740478 93.0472777,79.2484785 93.144217,79.5866749 C93.2411563,79.9248714 93.374449,80.2087143 93.544093,80.4382043 C93.713737,80.6676943 93.9318512,80.7824396 94.1984355,80.7824396 C94.4892545,80.7824396 94.7497794,80.6374985 94.9800114,80.3476161 C95.2103432,80.0577337 95.4042229,79.7255773 95.5616492,79.3511455 C95.7191765,78.9767138 95.8464098,78.5962432 95.943349,78.2097337 L96.1614632,77.3400867 C96.1856977,77.1951455 96.2341679,77.0864396 96.3068727,77.013969 C96.3318747,76.9890476 96.3568767,76.9684111 96.3818786,76.9520598 C96.3878125,76.1945538 96.4052216,75.3455431 96.4341059,74.4050279 C96.4704583,73.2213414 96.5128696,71.832322 96.5613392,70.237969 C96.5613392,70.0205573 96.5492219,69.7367138 96.5249868,69.3864396 C96.5007518,69.0361655 96.4886345,68.8368714 96.4886345,68.7885573 C96.4886345,68.595302 96.5673981,68.4805573 96.7249248,68.444322 C96.8824516,68.4080867 96.9975676,68.389969 97.0702723,68.389969 C97.2399169,68.389969 97.4398549,68.4080867 97.6700863,68.444322 C97.9003228,68.4805573 98.1305548,68.5228314 98.3607812,68.5711455 C98.591016,68.6194596 98.8030713,68.6738125 98.9969476,68.7342043 C99.1908272,68.7945961 99.3241189,68.8489491 99.3968236,68.8972632 L99.3968236,77.629969 C99.5179985,77.1709885 99.663408,76.6153808 99.833052,75.9631455 C100.002697,75.3109102 100.184458,74.6707532 100.378337,74.0426749 C100.572217,73.4145967 100.790331,72.8348314 101.03268,72.3033808 C101.275029,71.7719302 101.529496,71.3854197 101.79608,71.1438514 C101.893019,71.0713808 102.074781,71.0170279 102.341365,70.9807926 C102.607949,70.9445573 102.826063,70.9264396 102.995708,70.9264396 C103.116882,70.9264396 103.26835,70.9445573 103.450112,70.9807926 C103.631874,71.0170279 103.807577,71.0713808 103.977221,71.1438514 C104.1469,71.216322 104.298368,71.3069102 104.431626,71.4156161 C104.564918,71.524322 104.643682,71.6511455 104.667916,71.7960867 L104.667916,77.6662043 L104.667916,78.0466749 C104.667916,78.1553808 104.692151,78.2097337 104.740621,78.2097337 C104.764856,78.2097337 104.898148,77.8836161 105.140497,77.2313808 C105.382846,76.5791455 105.661548,75.8061261 105.976601,74.912322 C106.291655,74.0185179 106.630944,73.1005573 106.994468,72.1584396 C107.357991,71.216322 107.685163,70.4674596 107.975982,69.9118514 C108.024452,69.8152243 108.188037,69.7608714 108.466738,69.7487926 C108.74544,69.7367138 108.993848,69.7306749 109.211962,69.7306749 C109.381606,69.7306749 109.611838,69.7850279 109.902657,69.8937337 C110.193476,70.0024396 110.478236,70.1534197 110.756937,70.3466749 C111.035638,70.5399302 111.277988,70.757342 111.483985,70.9989102 C111.689981,71.2404785 111.79298,71.4941255 111.79298,71.7598514 C111.79298,71.8081655 111.720275,71.9470667 111.574866,72.1765573 C111.429456,72.4060478 111.332517,72.6415773 111.284047,72.8831455 C111.211342,73.2213414 111.144696,73.5534985 111.084109,73.8796161 C111.023522,74.2057337 110.975052,74.5439296 110.938699,74.8942043 C110.902347,75.244479 110.878112,75.6189102 110.865994,76.0174985 C110.853877,76.4160867 110.847818,76.8690279 110.847818,77.376322 C110.847818,77.8111455 110.865994,78.245969 110.902347,78.6807926 C110.938699,79.1156161 110.999286,79.5081655 111.084109,79.8584396 C111.168931,80.2087143 111.284047,80.4925573 111.429456,80.709969 C111.574866,80.9273808 111.768745,81.0360867 112.011094,81.0360867 C112.374618,81.0360867 112.683613,80.9213414 112.938079,80.6918514 C113.192546,80.4623614 113.416718,80.1543614 113.610598,79.7678514 C113.804618,79.381342 113.968204,78.9284008 114.101355,78.4090279 C114.234648,77.8896549 114.361881,77.3521649 114.483055,76.7965573 C114.579995,76.2167926 114.798109,75.9269102 115.137397,75.9269102 C115.331276,75.9269102 115.458509,75.9752238 115.519097,76.0718514 C115.579685,76.168479 115.609978,76.3858908 115.609978,76.7240867 C115.609978,76.8931849 115.597861,77.0260473 115.573626,77.1226749 C115.54939,77.4367143 115.446392,77.9258902 115.26463,78.5902043 C115.082869,79.2545184 114.828402,79.9188314 114.501231,80.5831455 C114.17406,81.2474591 113.768125,81.8272238 113.283427,82.3224396 C112.798728,82.8176555 112.241326,83.0652632 111.611218,83.0652632 C110.859936,83.0652632 110.241946,82.8901261 109.757247,82.5398514 C109.272549,82.1895767 108.896908,81.7185179 108.630324,81.1266749 C108.36374,80.5348314 108.17592,79.8523997 108.066862,79.0793808 C107.957805,78.3063608 107.903277,77.4971061 107.903277,76.6516161 L107.903277,76.397969 L108.121391,73.4266749 C107.95165,73.7407143 107.782006,74.0789102 107.612458,74.4412632 C107.442722,74.8036161 107.291254,75.1538908 107.158053,75.4920867 C107.024762,75.8302947 106.903587,76.150373 106.79453,76.452322 C106.685473,76.7542931 106.594592,77.0019007 106.521887,77.1951455 C106.473417,77.3159296 106.394654,77.5695767 106.285597,77.9560867 C106.176539,78.3425961 106.061424,78.7713808 105.940249,79.2424396 C105.819074,79.7134985 105.710017,80.1785179 105.613078,80.6374985 C105.516139,81.096479 105.467668,81.4709102 105.467668,81.7607926 C105.467668,81.8815767 105.358611,81.9902826 105.140497,82.0869102 C104.922383,82.1835379 104.643682,82.2318514 104.304393,82.2318514 C103.771225,82.2318514 103.347114,82.1593808 103.03206,82.0144396 C102.717006,81.8694985 102.480716,81.633969 102.323189,81.3078514 C102.165662,80.9817337 102.068722,80.5589885 102.03237,80.0396161 C101.996018,79.5202421 101.977841,78.8740456 101.977841,78.1010279 L101.977841,75.3833808 C101.977841,75.1901261 101.971783,74.9968708 101.959665,74.8036161 C101.947548,74.6103614 101.905137,74.4895767 101.832432,74.4412632 C101.711258,74.4895916 101.559789,74.8096699 101.378027,75.4014985 C101.196266,75.9933414 101.020563,76.6999296 100.850918,77.5212632 C100.681274,78.3425961 100.541923,79.2122432 100.432866,80.1302043 C100.323809,81.0481655 100.26928,81.8694985 100.26928,82.5942043 C100.26928,82.8599296 100.12993,83.0169496 99.8512282,83.0652632 C99.5725271,83.1135767 99.263532,83.1377337 98.9242429,83.1377337 C98.803068,83.1377337 98.633424,83.1196161 98.4153098,83.0833808 C98.1971956,83.0471455 97.9669636,83.0048708 97.7246149,82.9565573 C97.4822656,82.9082437 97.2641514,82.841812 97.0702723,82.7572632 C96.8763932,82.6727143 96.7673361,82.5700473 96.743101,82.4492632 C96.6219267,82.1352238 96.5310458,81.609812 96.4704583,80.8730279 C96.4509092,80.6352974 96.434514,80.3579565 96.4212726,80.0410052 Z M67.9883811,84.6958514 L67.9883811,87.6490279 C67.9883811,88.385812 67.9823222,88.9595379 67.9702049,89.3702043 C67.9580876,89.7808708 67.9520287,90.0586749 67.9520287,90.2036161 L67.9520287,90.5297337 C67.9520287,90.8920867 67.9156764,91.3752238 67.8429716,91.9791455 C67.7702669,92.5830667 67.6430336,93.1749102 67.4612718,93.7546749 C67.27951,94.3344396 67.0311024,94.8356949 66.7160484,95.2584396 C66.4009944,95.6811844 65.9890011,95.8925573 65.480068,95.8925573 C65.1892491,95.8925573 64.9408414,95.8080079 64.7348445,95.6389102 C64.5288482,95.4698125 64.3713209,95.2584396 64.2622638,95.0047926 C64.1532067,94.7511455 64.0744436,94.4793808 64.0259734,94.1894985 C63.9775032,93.8996161 63.9532687,93.6338902 63.9532687,93.392322 C63.9532687,92.7159302 64.0562674,91.954989 64.2622638,91.1094985 C64.4682602,90.2640084 64.7530207,89.4305967 65.1165443,88.6092632 C65.480068,87.7879296 65.9102374,87.0269885 66.4070533,86.3264396 C66.9038691,85.6258902 67.4309784,85.0823608 67.9883811,84.6958514 Z M90.2723802,72.8469102 C90.2723802,72.8952243 90.1875582,72.9737337 90.0179137,73.0824396 C89.8482691,73.1911455 89.739212,73.450832 89.6907424,73.8614985 C89.6180377,74.6345179 89.539274,75.4860473 89.454452,76.4160867 C89.36963,77.3461239 89.2242206,78.2157709 89.0182237,79.0250279 C88.8122268,79.834282 88.5214079,80.5106744 88.1457669,81.0542043 C87.770126,81.5977337 87.2430168,81.8694985 86.5644391,81.8694985 C86.2736202,81.8694985 86.0373298,81.7004008 85.855568,81.3622043 C85.6738062,81.024009 85.5344551,80.6133425 85.4375158,80.1302043 C85.3405766,79.6470667 85.2739302,79.1397726 85.2375778,78.608322 C85.2012255,78.0768752 85.1830493,77.6058164 85.1830493,77.1951455 C85.1830493,76.6636943 85.2194016,75.9631455 85.2921064,75.0934985 C85.3648111,74.2238514 85.5223384,73.372322 85.7646871,72.5389102 C86.0070358,71.7054985 86.3342071,70.9807926 86.7462009,70.3647926 C87.1581892,69.7487926 87.7155919,69.4407926 88.4184097,69.4407926 C88.8061684,69.4407926 89.1272808,69.5494985 89.3817473,69.7669102 C89.6362139,69.984322 89.8240346,70.2500478 89.945209,70.5640867 C90.0663229,70.8781255 90.1511449,71.216322 90.1996755,71.5786749 C90.2481451,71.9410279 90.2723802,72.2550667 90.2723802,72.5207926 L90.2723802,72.8469102 Z" id="Instagram" fill="url(#linearGradient-2)"></path>
                </g>
            </g>
        </g>
    </g>
</svg>