<?xml version="1.0" encoding="UTF-8" standalone="no"?>
<svg width="25px" height="22px" viewBox="0 0 25 22" version="1.1" xmlns="http://www.w3.org/2000/svg" xmlns:xlink="http://www.w3.org/1999/xlink">
    <!-- Generator: sketchtool 40.3 (33839) - http://www.bohemiancoding.com/sketch -->
    <title>60211CC8-E53D-4F30-B334-7FAC56A5D110</title>
    <desc>Created with sketchtool.</desc>
    <defs></defs>
    <g id="Page-1" stroke="none" stroke-width="1" fill="none" fill-rule="evenodd">
        <g id="04_Landing" transform="translate(-1227.000000, -888.000000)" fill="#AFAFAF">
            <g id="timeline-4" transform="translate(869.000000, 589.000000)">
                <g id="block-1">
                    <path d="M370.033471,302.001499 C370.117625,302.135161 370.295318,302.135804 370.379784,302.002303 C372.178295,299.157439 375.994773,298.194139 378.881963,299.720235 C382.985627,301.888907 383.513856,307.459932 380.46133,310.597695 C377.936877,313.5722 375.117104,316.509871 371.867646,319.555952 C370.935386,320.424515 369.498048,320.40843 368.569229,319.523783 C365.018038,316.177887 362.340137,313.369857 359.886542,310.426555 C357.105873,307.571558 357.398847,302.689432 360.76734,300.209365 C363.597593,298.129318 368.000331,298.773984 370.033471,302.001499 L370.033471,302.001499 Z M360.651276,309.549306 C363.107531,312.452336 365.763376,315.196923 369.290009,318.47885 C369.805255,318.951798 370.651484,318.951798 371.164853,318.484084 C374.385842,315.51127 377.177147,312.642339 379.699567,309.714092 C382.304733,307.070534 381.85534,302.448588 378.405353,300.650689 C375.946126,299.369194 372.657877,300.205021 371.203489,302.768962 C370.795234,303.486631 369.655718,303.49234 369.248402,302.77372 C367.666845,299.982187 363.90089,299.220268 361.374404,301.052425 C358.537737,303.11043 358.282304,307.146345 360.651276,309.549306 Z" id="heart"></path>
                </g>
            </g>
        </g>
    </g>
</svg>