<?xml version="1.0" encoding="UTF-8" standalone="no"?>
<svg width="21px" height="29px" viewBox="0 0 21 29" version="1.1" xmlns="http://www.w3.org/2000/svg" xmlns:xlink="http://www.w3.org/1999/xlink">
    <!-- Generator: sketchtool 40.3 (33839) - http://www.bohemiancoding.com/sketch -->
    <title>53790E06-6A78-497A-963B-2E0AA1835286</title>
    <desc>Created with sketchtool.</desc>
    <defs></defs>
    <g id="Page-1" stroke="none" stroke-width="1" fill="none" fill-rule="evenodd">
        <g id="08_Map-View" transform="translate(-557.000000, -414.000000)" fill="#FF8842">
            <g id="Map" transform="translate(-1.000000, 0.000000)">
                <g transform="translate(225.000000, 229.000000)" id="pin">
                    <g transform="translate(333.000000, 185.000000)">
                        <g id="Capa_1">
                            <g id="Group">
                                <path d="M10.5796377,15.7165217 C7.97099206,15.7165217 5.84808271,13.5496721 5.84808271,10.886182 C5.84808271,8.22269177 7.97015889,6.05584216 10.5796377,6.05584216 C13.1891166,6.05584216 15.3111927,8.22269177 15.3111927,10.886182 C15.3111927,13.5496721 13.1882834,15.7165217 10.5796377,15.7165217 L10.5796377,15.7165217 Z M10.5796377,7.59948576 C8.80402418,7.59948576 7.35944556,9.07396446 7.35944556,10.8870324 C7.35944556,12.7001003 8.80402418,14.174579 10.5796377,14.174579 C12.3552513,14.174579 13.7998299,12.7001003 13.7998299,10.8870324 C13.7998299,9.07396446 12.3552513,7.59948576 10.5796377,7.59948576 L10.5796377,7.59948576 Z" id="Shape"></path>
                                <path d="M10.5796377,28.5589331 C10.4554426,28.5589331 10.3379607,28.503259 10.2582409,28.4056151 C9.85208924,27.9114001 0.31927396,16.2301088 0.31927396,10.5924596 C0.31927396,4.81690991 4.92204613,0.118012422 10.5796377,0.118012422 C16.2372293,0.118012422 20.8400015,4.81690991 20.8400015,10.5924596 C20.8400015,16.2309653 11.3071862,27.9114001 10.9018737,28.4064716 C10.8213147,28.503259 10.7029937,28.5589331 10.5796377,28.5589331 L10.5796377,28.5589331 Z M2.41386726,10.7265174 C2.41386726,14.6845557 9.11697055,22.957289 10.5796377,24.7142857 C12.0415776,22.9565785 18.7454082,14.6838452 18.7454082,10.7265174 C18.7446809,6.32727621 15.0818306,2.74862989 10.5796377,2.74862989 C6.07671754,2.74862989 2.41386726,6.32727621 2.41386726,10.7265174 Z" id="Shape"></path>
                            </g>
                        </g>
                    </g>
                </g>
            </g>
        </g>
    </g>
</svg>