<?xml version="1.0" encoding="UTF-8" standalone="no"?>
<svg width="10px" height="13px" viewBox="0 0 10 13" version="1.1" xmlns="http://www.w3.org/2000/svg" xmlns:xlink="http://www.w3.org/1999/xlink">
    <!-- Generator: sketchtool 40.3 (33839) - http://www.bohemiancoding.com/sketch -->
    <title>A2AC80A6-2AF6-41D0-99EC-17D560C8688D</title>
    <desc>Created with sketchtool.</desc>
    <defs></defs>
    <g id="Page-1" stroke="none" stroke-width="1" fill="none" fill-rule="evenodd">
        <g id="04_Landing" transform="translate(-824.000000, -261.000000)" fill="#FF8842">
            <g id="timeline-1" transform="translate(450.000000, 227.000000)">
                <g id="pin" transform="translate(374.000000, 34.000000)">
                    <g id="Capa_1">
                        <g id="Group">
                            <path d="M5.03370909,6.942 C3.92952045,6.942 3.03093448,6.04215551 3.03093448,4.93606723 C3.03093448,3.82997894 3.92916778,2.93013445 5.03370909,2.93013445 C6.1382504,2.93013445 7.0364837,3.82997894 7.0364837,4.93606723 C7.0364837,6.04215551 6.13789773,6.942 5.03370909,6.942 L5.03370909,6.942 Z M5.03370909,3.57117534 C4.28212664,3.57117534 3.67066479,4.18349357 3.67066479,4.93642038 C3.67066479,5.68934719 4.28212664,6.30166543 5.03370909,6.30166543 C5.78529155,6.30166543 6.39675339,5.68934719 6.39675339,4.93642038 C6.39675339,4.18349357 5.78529155,3.57117534 5.03370909,3.57117534 L5.03370909,3.57117534 Z" id="Shape"></path>
                            <path d="M5.03370909,12.2751681 C4.98113972,12.2751681 4.93141195,12.2520478 4.89766809,12.2114985 C4.72575206,12.006262 0.690697973,7.15528129 0.690697973,4.81409087 C0.690697973,2.41563342 2.63896132,0.464285714 5.03370909,0.464285714 C7.42845686,0.464285714 9.37672021,2.41563342 9.37672021,4.81409087 C9.37672021,7.15563698 5.34166612,12.006262 5.17010529,12.2118542 C5.13600624,12.2520478 5.08592326,12.2751681 5.03370909,12.2751681 L5.03370909,12.2751681 Z M1.57729831,4.8697621 C1.57729831,6.51344743 4.41459071,9.94892974 5.03370909,10.6785714 C5.65251961,9.9486347 8.49011987,6.51315239 8.49011987,4.8697621 C8.489812,3.04285498 6.93939919,1.55672269 5.03370909,1.55672269 C3.12771113,1.55672269 1.57729831,3.04285498 1.57729831,4.8697621 Z" id="Shape"></path>
                        </g>
                    </g>
                </g>
            </g>
        </g>
    </g>
</svg>