<?xml version="1.0" encoding="UTF-8" standalone="no"?>
<svg width="17px" height="17px" viewBox="0 0 17 17" version="1.1" xmlns="http://www.w3.org/2000/svg" xmlns:xlink="http://www.w3.org/1999/xlink">
    <!-- Generator: sketchtool 40.3 (33839) - http://www.bohemiancoding.com/sketch -->
    <title>9E34E804-50D2-4A7E-9C69-45EEBFBB38A3</title>
    <desc>Created with sketchtool.</desc>
    <defs></defs>
    <g id="Page-1" stroke="none" stroke-width="1" fill="none" fill-rule="evenodd">
        <g id="01_Sign-In" transform="translate(-578.000000, -639.000000)" fill="#D2D6D9">
            <g id="Already-a-member" transform="translate(384.000000, 203.000000)">
                <g id="Remember-me-+-check-circle-2" transform="translate(194.289817, 429.836134)">
                    <path d="M11.820711,13.2318393 C11.820711,12.9845428 11.7341585,12.774344 11.561051,12.6012365 L11.5486862,12.576507 C11.3755787,12.4033994 11.1653799,12.316847 10.9180835,12.316847 C10.670787,12.316847 10.4605882,12.4033994 10.2874807,12.576507 L7.29520866,15.568779 L6.20710974,14.4930448 C6.03400223,14.3116941 5.8238034,14.2210201 5.57650696,14.2210201 C5.32921051,14.2210201 5.11489014,14.3116941 4.93353941,14.4930448 C4.75218869,14.6743955 4.66151468,14.8887159 4.66151468,15.1360124 C4.66151468,15.3833088 4.74806714,15.5935076 4.92117465,15.7666151 L6.78825348,17.633694 C6.92014491,17.7738286 7.08500674,17.8438949 7.28284389,17.8438949 C7.48068105,17.8438949 7.64966442,17.7738286 7.78979907,17.633694 L11.561051,13.862442 C11.7341585,13.6893345 11.820711,13.4791357 11.820711,13.2318393 L11.820711,13.2318393 Z M8,7 C9.08810436,7 10.1267338,7.21019883 11.1159196,7.63060278 C12.1051054,8.05100674 12.9541438,8.61978003 13.6630603,9.33693972 C14.38022,10.0540994 14.9489933,10.9072594 15.3693972,11.8964451 C15.7898012,12.8856309 16,13.8665588 16,14.8392581 C15.9917568,15.8119575 15.8557458,16.7063329 15.5919629,17.5224111 C15.0808836,19.0886219 14.1370496,20.3910304 12.7604328,21.4296754 C11.3755727,22.4765637 9.78877762,23 8,23 C6.91189564,23 5.87326615,22.7898012 4.88408037,22.3693972 C3.89489459,21.9489933 3.0458562,21.38022 2.33693972,20.6630603 C1.61978003,19.9459006 1.05100674,19.0927406 0.630602782,18.1035549 C0.210198825,17.1143691 0,16.0798611 0,15 C0,13.9201389 0.210198825,12.8856309 0.630602782,11.8964451 C1.05100674,10.9072594 1.61978003,10.0540994 2.33693972,9.33693972 C3.0458562,8.61978003 3.89489459,8.05100674 4.88408037,7.63060278 C5.87326615,7.21019883 6.91189564,7 8,7 L8,7 Z" id="reminder_me"></path>
                </g>
            </g>
        </g>
    </g>
</svg>