<?xml version="1.0" encoding="UTF-8" standalone="no"?>
<svg width="17px" height="17px" viewBox="0 0 17 17" version="1.1" xmlns="http://www.w3.org/2000/svg" xmlns:xlink="http://www.w3.org/1999/xlink">
    <!-- Generator: sketchtool 40.3 (33839) - http://www.bohemiancoding.com/sketch -->
    <title>D67BC45A-A14B-4CC5-8679-8DB2F5BEB2DE</title>
    <desc>Created with sketchtool.</desc>
    <defs></defs>
    <g id="Page-1" stroke="none" stroke-width="1" fill="none" fill-rule="evenodd">
        <g id="03_Landing" transform="translate(-759.000000, -25.000000)" fill="#FC3474">
            <g id="Header">
                <g id="Search" transform="translate(748.000000, 16.000000)">
                    <path d="M25.6398847,25.2914197 C26.1012786,25.7935351 26.9992793,25.7463216 27.4322269,25.198409 C27.8053316,24.7304053 27.7138554,23.99116 27.2289728,23.550422 L23.3303184,20.0078754 C22.8684523,19.5879113 22.7493563,18.9089812 23.0401914,18.3564653 C23.6533767,17.1922985 23.8881458,15.8739796 23.7187673,14.5442114 C23.3671449,11.7800974 21.209016,9.53580392 18.4698069,9.08668551 C16.2248053,8.71747599 13.9667018,9.54430237 12.5166573,11.2494178 C11.3005557,12.6799867 10.7792007,14.5798579 11.0862064,16.462614 C11.5319017,19.1971016 13.7695853,21.357237 16.5283879,21.7161776 C17.8593362,21.8882708 19.1676222,21.6596395 20.3360382,21.0495231 C20.8912688,20.7592782 21.560284,20.8871088 21.97352,21.3335124 L25.6398847,25.2914197 Z M17.3851946,20.8128656 C14.392095,20.8128656 11.9568228,18.3775934 11.9568228,15.3844938 C11.9568228,12.3913943 14.392095,9.95612208 17.3851946,9.95612208 C20.3782941,9.95612208 22.8134482,12.3913943 22.8134482,15.3844938 C22.8134482,18.3775934 20.3782941,20.8128656 17.3851946,20.8128656 L17.3851946,20.8128656 Z" id="search"></path>
                </g>
            </g>
        </g>
    </g>
</svg>