<?xml version="1.0" encoding="UTF-8" standalone="no"?>
<svg width="11px" height="11px" viewBox="0 0 11 11" version="1.1" xmlns="http://www.w3.org/2000/svg" xmlns:xlink="http://www.w3.org/1999/xlink">
    <!-- Generator: sketchtool 40.3 (33839) - http://www.bohemiancoding.com/sketch -->
    <title>D4DA44D6-9E00-40DA-B7F9-BDEDA900DEC4</title>
    <desc>Created with sketchtool.</desc>
    <defs></defs>
    <g id="Page-1" stroke="none" stroke-width="1" fill="none" fill-rule="evenodd">
        <g id="04_Profile" transform="translate(-1243.000000, -966.000000)" fill="#FF8842">
            <g id="Posts" transform="translate(450.000000, 227.000000)">
                <g id="timeline-6" transform="translate(419.000000, 725.000000)">
                    <path d="M379.5,16.8394185 C379.624679,16.8394185 379.732354,16.8847555 379.823029,16.9754309 C379.913705,17.0661062 379.959042,17.1766152 379.959042,17.306961 L379.959042,18.803097 C379.970376,18.9504445 380.046882,19.0297842 380.188563,19.0411187 L382.36476,19.0411187 C382.483772,19.0467859 382.58578,19.0949564 382.670788,19.1856318 C382.755796,19.2763072 382.7983,19.3669812 382.7983,19.4576565 C382.7983,19.605004 382.75863,19.7240136 382.679289,19.814689 C382.599948,19.8996971 382.500773,19.9478677 382.381762,19.9592021 L379.270479,19.9592021 C379.123132,19.9478677 379.043792,19.8656944 379.032457,19.7126797 L379.032457,17.2899595 C379.038125,17.1652808 379.086295,17.0576055 379.176971,16.9669301 C379.267646,16.8762547 379.375321,16.8337513 379.5,16.8394185 L379.5,16.8394185 Z M384.148127,19.4995595 C384.154595,18.8656537 384.034931,18.2640991 383.789131,17.6948776 C383.543331,17.1191876 383.213446,16.6243604 382.799466,16.2103811 C382.385487,15.7964019 381.887426,15.4665171 381.305267,15.2207169 C380.736046,14.9749167 380.134491,14.8520184 379.500586,14.8520184 C378.86668,14.8520184 378.265125,14.9749167 377.695904,15.2207169 C377.126682,15.4665171 376.628621,15.7964019 376.201705,16.2103811 C375.787725,16.6243604 375.45784,17.1191876 375.21204,17.6948776 C374.96624,18.2640991 374.843342,18.8656537 374.843342,19.4995595 C374.843342,20.1334653 374.96624,20.7382541 375.21204,21.313944 C375.45784,21.8896339 375.787725,22.3844611 376.201705,22.7984404 C376.615684,23.2124197 377.113745,23.5423045 377.695904,23.7881047 C378.265125,24.0339049 378.86668,24.1568032 379.500586,24.1568032 C380.134491,24.1568032 380.736046,24.0339049 381.305267,23.7881047 C381.887426,23.5423045 382.385487,23.2124197 382.799466,22.7984404 C383.213446,22.3844611 383.543331,21.8896339 383.789131,21.313944 C384.034931,20.7382541 384.154595,20.1334653 384.148127,19.4995595 L384.148127,19.4995595 Z M381.642195,14.4336998 C382.32226,14.7283947 382.905974,15.1194264 383.393354,15.6068065 C383.886401,16.0941865 384.277433,16.680734 384.566461,17.3664664 C384.855488,18.0408644 385,18.7520886 385,19.5001604 C385,20.2482321 384.855488,20.9622899 384.566461,21.6423551 C384.277433,22.3224204 383.886401,22.9061343 383.393354,23.3935143 C382.905974,23.8808944 382.32226,24.2719261 381.642195,24.566621 C380.96213,24.8613159 380.248072,25.0086612 379.5,25.0086612 C378.751928,25.0086612 378.03787,24.8613159 377.357805,24.566621 C376.67774,24.2719261 376.094026,23.8808944 375.606646,23.3935143 C375.113599,22.9061343 374.722567,22.3224204 374.433539,21.6423551 C374.144512,20.9622899 374,20.2482321 374,19.5001604 C374,18.7520886 374.144512,18.0408644 374.433539,17.3664664 C374.722567,16.680734 375.113599,16.0941865 375.606646,15.6068065 C376.094026,15.1194264 376.67774,14.7283947 377.357805,14.4336998 C378.03787,14.1390049 378.751928,13.9944932 379.5,14.0001604 C380.248072,13.9944932 380.96213,14.1390049 381.642195,14.4336998 Z" id="clock"></path>
                </g>
            </g>
        </g>
    </g>
</svg>