<?xml version="1.0" encoding="UTF-8" standalone="no"?>
<svg width="33px" height="29px" viewBox="0 0 33 29" version="1.1" xmlns="http://www.w3.org/2000/svg" xmlns:xlink="http://www.w3.org/1999/xlink">
    <!-- Generator: sketchtool 40.3 (33839) - http://www.bohemiancoding.com/sketch -->
    <title>ECEECA4E-5C9F-41E6-9A25-615121F4BD05</title>
    <desc>Created with sketchtool.</desc>
    <defs>
        <filter x="-50%" y="-50%" width="200%" height="200%" filterUnits="objectBoundingBox" id="filter-1">
            <feOffset dx="0" dy="0" in="SourceAlpha" result="shadowOffsetOuter1"></feOffset>
            <feGaussianBlur stdDeviation="2" in="shadowOffsetOuter1" result="shadowBlurOuter1"></feGaussianBlur>
            <feColorMatrix values="0 0 0 0 0   0 0 0 0 0   0 0 0 0 0  0 0 0 0.5 0" type="matrix" in="shadowBlurOuter1" result="shadowMatrixOuter1"></feColorMatrix>
            <feMerge>
                <feMergeNode in="shadowMatrixOuter1"></feMergeNode>
                <feMergeNode in="SourceGraphic"></feMergeNode>
            </feMerge>
        </filter>
    </defs>
    <g id="Page-1" stroke="none" stroke-width="1" fill="none" fill-rule="evenodd">
        <g id="06_Favorites" transform="translate(-804.000000, -377.000000)" fill="#FC3079">
            <g id="Posts" transform="translate(450.000000, 83.000000)">
                <g id="timeline-1" filter="url(#filter-1)">
                    <g id="block-1">
                        <path d="M370.379784,301.002303 C372.178295,298.157439 375.994773,297.194139 378.881963,298.720235 C382.985627,300.888907 383.513856,306.459932 380.46133,309.597695 C377.936877,312.5722 375.117104,315.509871 371.867646,318.555952 C370.935386,319.424515 369.498048,319.40843 368.569229,318.523783 C365.018038,315.177887 362.340137,312.369857 359.886542,309.426555 C357.105873,306.571558 357.398847,301.689432 360.76734,299.209365 C363.597593,297.129318 368.000331,297.773984 370.033471,301.001499 C370.117625,301.135161 370.295318,301.135804 370.379784,301.002303 Z" id="heart_select"></path>
                    </g>
                </g>
            </g>
        </g>
    </g>
</svg>