<?xml version="1.0" encoding="UTF-8" standalone="no"?>
<svg width="157px" height="133px" viewBox="0 0 157 133" version="1.1" xmlns="http://www.w3.org/2000/svg" xmlns:xlink="http://www.w3.org/1999/xlink">
    <!-- Generator: sketchtool 41.1 (35376) - http://www.bohemiancoding.com/sketch -->
    <title>78068911-5E68-4F3E-9EC0-EE141C0B40FA</title>
    <desc>Created with sketchtool.</desc>
    <defs>
        <radialGradient cx="14.9305469%" cy="100.347188%" fx="14.9305469%" fy="100.347188%" r="127.774922%" id="radialGradient-1">
            <stop stop-color="#FFB140" offset="0%"></stop>
            <stop stop-color="#FF5445" offset="25.59%"></stop>
            <stop stop-color="#FC2B82" offset="59.9%"></stop>
            <stop stop-color="#8E40B7" offset="100%"></stop>
        </radialGradient>
        <linearGradient x1="50%" y1="0%" x2="50%" y2="100%" id="linearGradient-2">
            <stop stop-color="#BB38A1" offset="0%"></stop>
            <stop stop-color="#FE4162" offset="100%"></stop>
        </linearGradient>
    </defs>
    <g id="Page-1" stroke="none" stroke-width="1" fill="none" fill-rule="evenodd">
        <g id="01_Sign-In" transform="translate(-648.000000, -203.000000)">
            <g id="Already-a-member" transform="translate(384.000000, 203.000000)">
                <g id="Instagram_Logo" transform="translate(264.000000, 0.000000)">
                    <g id="1476706462_Instagram" transform="translate(44.385117, 0.222689)">
                        <g id="Social_Icons">
                            <g id="_x37__stroke">
                                <g id="Instagram_1_">
                                    <rect id="Rectangle-path" x="0" y="0" width="63.2584856" height="63.2268908"></rect>
                                    <path d="M52.3083429,14.738287 C52.3083429,16.8336657 50.6087653,18.5319005 48.5128338,18.5319005 C46.4169023,18.5319005 44.7173247,16.8336657 44.7173247,14.738287 C44.7173247,12.6429084 46.4169023,10.9446736 48.5128338,10.9446736 C50.6092595,10.9446736 52.3083429,12.6429084 52.3083429,14.738287 L52.3083429,14.738287 Z M31.6292428,42.1510959 C25.8064969,42.1510959 21.0863266,37.4332831 21.0863266,31.6134454 C21.0863266,25.7936077 25.8064969,21.0757949 31.6292428,21.0757949 C37.4519887,21.0757949 42.172159,25.7936077 42.172159,31.6134454 C42.172159,37.4332831 37.4519887,42.1510959 31.6292428,42.1510959 L31.6292428,42.1510959 Z M31.6292428,15.3794472 C22.658893,15.3794472 15.3871324,22.6475759 15.3871324,31.6134454 C15.3871324,40.5793149 22.658893,47.8474435 31.6292428,47.8474435 C40.5995926,47.8474435 47.8713532,40.5793149 47.8713532,31.6134454 C47.8713532,22.6475759 40.5995926,15.3794472 31.6292428,15.3794472 L31.6292428,15.3794472 Z M31.6292428,5.69634769 C40.0747449,5.69634769 41.0750197,5.72845509 44.409928,5.8805948 C47.4937791,6.02137342 49.1686464,6.53607983 50.283083,6.96928283 C51.759279,7.54277048 52.8129282,8.22789312 53.9199517,9.33436371 C55.0269752,10.4403403 55.7124402,11.4934632 56.2862144,12.969416 C56.7191397,14.083296 57.2345975,15.7573267 57.3754465,18.8396376 C57.5276622,22.1733742 57.5597857,23.1731494 57.5597857,31.6144333 C57.5597857,40.0557172 57.5276622,41.0554924 57.3754465,44.388735 C57.2345975,47.471046 56.7196339,49.1450767 56.2862144,50.2589567 C55.7124402,51.7344154 55.0269752,52.7875383 53.9199517,53.8940089 C52.8134224,55.0004795 51.7597733,55.6856022 50.283083,56.2590898 C49.1686464,56.6917988 47.4937791,57.2069992 44.409928,57.3477778 C41.0750197,57.4999175 40.0747449,57.5320249 31.6292428,57.5320249 C23.1832466,57.5320249 22.1829718,57.4999175 18.8480635,57.3477778 C15.7642123,57.2069992 14.0893451,56.6922928 12.9749085,56.2590898 C11.4987124,55.6856022 10.4450632,55.0004795 9.33803974,53.8940089 C8.23151044,52.7880323 7.54555124,51.7349094 6.97177701,50.2589567 C6.53885175,49.1450767 6.02339393,47.471046 5.88254496,44.388735 C5.73032923,41.0549984 5.69820578,40.0552232 5.69820578,31.6144333 C5.69820578,23.1731494 5.73032923,22.1733742 5.88254496,18.8396376 C6.02339393,15.7573267 6.53835754,14.083296 6.97177701,12.969416 C7.54555124,11.4939572 8.23101624,10.4408343 9.33803974,9.33436371 C10.444569,8.22789312 11.4982182,7.54277048 12.9749085,6.96928283 C14.0893451,6.53657379 15.7642123,6.02137342 18.8480635,5.8805948 C22.183466,5.72845509 23.1837408,5.69634769 31.6292428,5.69634769 L31.6292428,5.69634769 Z M31.6292428,0 C23.0394324,0 21.9620613,0.0365530462 18.5886048,0.190174632 C15.2220673,0.343796218 12.9225225,0.878261029 10.9111004,1.65970588 C8.83098344,2.46733062 7.06715894,3.54860924 5.30877072,5.30611922 C3.55038251,7.0636292 2.46856356,8.82657274 1.66053525,10.9056507 C0.878699902,12.9165622 0.343968016,15.2144645 0.190269664,18.5793206 C0.036571312,21.9510922 0,23.0279252 0,31.6134454 C0,40.1989656 0.036571312,41.2757986 0.190269664,44.6475701 C0.343968016,48.0124262 0.878699902,50.3103285 1.66053525,52.32124 C2.46856356,54.400318 3.55038251,56.1632616 5.30877072,57.9207715 C7.06715894,59.6782815 8.83098344,60.7590662 10.9111004,61.5671849 C12.9230167,62.3486297 15.2220673,62.8830945 18.5886048,63.0367161 C21.9620613,63.1903377 23.0394324,63.2268908 31.6292428,63.2268908 C40.2190533,63.2268908 41.2964244,63.1903377 44.6698808,63.0367161 C48.0364183,62.8830945 50.3354689,62.3486297 52.3473853,61.5671849 C54.4275022,60.7590662 56.1913267,59.6782815 57.9497149,57.9207715 C59.7081031,56.1632616 60.7894279,54.400318 61.5979504,52.32124 C62.3797857,50.3103285 62.9145176,48.0124262 63.068216,44.6475701 C63.2219143,41.2757986 63.2584856,40.1989656 63.2584856,31.6134454 C63.2584856,23.0279252 63.2219143,21.9510922 63.068216,18.5793206 C62.9145176,15.2144645 62.3797857,12.9165622 61.5979504,10.9056507 C60.7894279,8.82657274 59.7081031,7.0636292 57.9497149,5.30611922 C56.1913267,3.54860924 54.4275022,2.46782458 52.3473853,1.65970588 C50.3354689,0.878261029 48.0364183,0.343796218 44.6698808,0.190174632 C41.2964244,0.0365530462 40.2190533,0 31.6292428,0 L31.6292428,0 Z" id="Instagram" fill="url(#radialGradient-1)"></path>
                                </g>
                            </g>
                        </g>
                    </g>
                    <path d="M20.874047,82.3403697 C20.874047,82.0125256 20.7674452,81.7830374 20.5542402,81.6518992 C20.3410352,81.5207609 20.1196305,81.4388021 19.8900261,81.4060168 L16.445953,81.1601345 C16.1507467,81.0617815 15.8883407,81.012605 15.6587363,81.012605 C15.0683238,81.012605 14.4943113,81.2257021 13.9366997,81.6518992 C13.3790882,82.0780962 12.8542768,82.6354286 12.3622663,83.3238992 C11.8702559,84.0123697 11.4110464,84.7909962 10.9846371,85.6597815 C10.5582278,86.5285188 10.1974204,87.4136953 9.9022141,88.3153109 C9.60700783,89.2168801 9.37740271,90.0856639 9.21339948,90.9216639 C9.04939625,91.7576639 8.96739426,92.4871153 8.96739426,93.1100168 L8.96739426,94.8311933 C8.96739426,95.6508006 9.10679696,96.5359771 9.38560313,97.4867227 C9.6644093,98.4374683 10.0908179,99.3226448 10.6648303,100.142252 C11.2388427,100.96186 11.9604575,101.642134 12.8296762,102.183076 C13.6988949,102.724017 14.7239164,102.994487 15.9047415,102.994487 L16.6427572,102.945311 C16.6427572,103.830487 16.4787532,104.773037 16.1507467,105.772958 C15.8227403,106.772877 15.3225287,107.699034 14.6501149,108.551429 C13.9777116,109.403821 13.1330934,110.108684 12.1162611,110.666017 C11.0994393,111.22335 9.9022141,111.502017 8.52458486,111.502017 C6.95015144,111.502017 5.63812409,111.157782 4.58850131,110.469311 C3.53887928,109.78084 3.01406789,108.649782 3.01406789,107.076134 C3.01406789,106.551586 3.16167102,106.108998 3.45687728,105.74837 C3.75208355,105.387755 4.07189034,105.027127 4.41629765,104.666487 C4.76070496,104.305874 5.08051175,103.896071 5.37571802,103.437076 C5.67092428,102.978104 5.81852742,102.371594 5.81852742,101.617546 C5.81852742,101.289703 5.73652617,100.970056 5.57252219,100.658605 C5.40851971,100.347154 5.03131221,100.191429 4.44089817,100.191429 C3.81768544,100.191429 3.26007311,100.347154 2.76806266,100.658605 C2.27605222,100.970056 1.85784334,101.37986 1.51343603,101.888017 C1.16902872,102.396173 0.906623401,102.986291 0.726219321,103.65837 C0.545815241,104.330445 0.455613577,105.027112 0.455613577,105.74837 C0.455613577,106.600762 0.570415764,107.494134 0.800020888,108.428487 C1.02962601,109.36284 1.47243541,110.223429 2.12844909,111.010252 C2.78446276,111.797076 3.69468208,112.444566 4.85910705,112.952723 C6.02353127,113.460879 7.54056397,113.714958 9.41020366,113.714958 L10.0498172,113.714958 C12.2146632,113.714958 13.9941012,113.362526 15.3881305,112.657664 C16.7821606,111.952801 17.880983,111.002056 18.6846005,109.805429 C19.4882181,108.608801 20.0540301,107.240057 20.3820366,105.699193 C20.710043,104.158331 20.874047,102.551899 20.874047,100.879899 L20.874047,84.6024874 C20.7428447,84.1107227 20.6772428,83.6681345 20.6772428,83.2747227 C20.6772428,82.9468786 20.7018433,82.7173904 20.7510444,82.5862521 C20.8002454,82.4551138 20.8412468,82.3731551 20.874047,82.3403697 L20.874047,82.3403697 Z M16.6427572,88.2415462 L16.6427572,99.7488403 C16.4787607,99.8144087 16.2409552,99.8635852 15.929342,99.8963697 C15.617837,99.9291543 15.4292325,99.9455462 15.36353,99.9455462 C14.6091143,99.9455462 14.0105013,99.6504874 13.5676919,99.0603697 C13.1248825,98.4702521 12.7804752,97.7817815 12.53447,96.994958 C12.2884648,96.2081345 12.1326612,95.4131153 12.0670601,94.6098992 C12.0014589,93.806683 11.968658,93.1919771 11.968658,92.7657815 C11.968658,92.2084477 12.017859,91.4871933 12.1162611,90.6020168 C12.2146632,89.7168403 12.3868668,88.8644477 12.6328721,88.0448403 C12.8788773,87.225233 13.231485,86.5203697 13.6906945,85.9302521 C14.149904,85.3401345 14.7403165,85.0450756 15.4619321,85.0450756 C16.0195445,85.0450756 16.4049516,85.2171933 16.6181567,85.5614286 C16.8313617,85.9056639 16.9379634,86.2908786 16.9379634,86.7170756 C16.9379634,86.9137815 16.9215626,87.0940947 16.8887624,87.2580168 L16.7903603,87.7497815 C16.7247584,87.9133404 16.6755574,88.0772625 16.6427572,88.2415462 L16.6427572,88.2415462 Z M32.1410862,101.027429 L32.0426841,104.617311 C32.0426841,106.715507 32.2476887,108.297351 32.6576971,109.36284 C33.0677056,110.428331 34.0107258,110.961076 35.4867572,110.961076 C36.4051769,110.961076 37.2005941,110.715193 37.8730078,110.223429 C38.5454216,109.731664 39.0866331,109.125154 39.4966423,108.403899 C39.9066515,107.682646 40.2182571,106.912215 40.4314621,106.092605 C40.6446672,105.272997 40.7676698,104.53535 40.80047,103.879664 L40.80047,103.781311 C40.80047,103.519037 40.7512689,103.289546 40.6528668,103.09284 C40.5544648,102.896134 40.3576606,102.797782 40.0624543,102.797782 C39.6360458,102.797782 39.3900405,103.109232 39.3244386,103.732134 C39.2588367,104.223899 39.152235,104.748448 39.0046319,105.305782 C38.8570287,105.863115 38.6684242,106.387664 38.4388198,106.879429 C38.2092155,107.371193 37.9386097,107.780998 37.6270026,108.10884 C37.3154465,108.436683 36.9792389,108.600605 36.6183812,108.600605 C36.1263708,108.600605 35.7983635,108.25637 35.6343603,107.567899 C35.4703571,106.879429 35.3883551,106.108998 35.3883551,105.256605 C35.3883551,103.748526 35.421156,102.617468 35.4867572,101.863429 C35.5523583,101.10939 35.5851593,100.568448 35.5851593,100.240605 C35.5851593,99.8144087 35.5687592,99.3472322 35.5359582,98.8390756 C35.5031573,98.3309183 35.4047552,97.8637418 35.240752,97.4375462 C35.0767487,97.0114062 34.8389432,96.6589753 34.5273368,96.3802521 C34.2157305,96.1015859 33.7647206,95.9622521 33.1743081,95.9622521 C32.7150986,95.9622521 32.2640888,96.2409183 31.8212794,96.7982521 C31.37847,97.3555859 30.9602611,98.0276639 30.5666527,98.8144874 C30.1730444,99.6013109 29.8122362,100.429115 29.4842298,101.297899 C29.1562233,102.166684 28.8774164,102.896134 28.647812,103.486252 C28.5822101,103.682958 28.5330091,103.814095 28.5002089,103.879664 L28.5002089,93.9460168 L28.5002089,93.8968403 C28.5002089,93.7001345 28.3854059,93.5280168 28.1558016,93.3804874 C27.9261972,93.232958 27.6473903,93.1100168 27.3193838,93.0116639 C26.9913773,92.9133109 26.6715698,92.8395462 26.3599634,92.7903697 C26.0483571,92.7411933 25.8269524,92.716605 25.6957493,92.716605 C25.2365398,92.716605 25.0069347,92.9297036 25.0069347,93.3558992 L24.3673211,107.961311 C24.4329223,108.813704 24.5149243,109.493978 24.6133264,110.002134 C24.7117285,110.510291 24.8593316,110.887311 25.0561358,111.133193 C25.2529399,111.379076 25.5399458,111.534801 25.917154,111.60037 C26.2943623,111.665938 26.7781723,111.698723 27.3685849,111.698723 C27.4669869,111.698723 27.6063904,111.690526 27.7867937,111.674134 C27.9671896,111.657743 28.1475929,111.633154 28.3280052,111.60037 C28.5084086,111.567585 28.6724125,111.518409 28.8200157,111.45284 C28.9676188,111.387272 29.0578212,111.305311 29.0906214,111.206958 C29.2546254,110.38735 29.4186279,109.526762 29.5826319,108.625193 C29.7466358,107.723624 29.9352388,106.830252 30.1484439,105.945076 C30.3616421,105.059899 30.6240475,104.191115 30.9356606,103.338723 C31.2472669,102.486331 31.6490757,101.715899 32.1410862,101.027429 L32.1410862,101.027429 Z M51.3294935,108.698958 C51.3294935,108.076058 50.9440855,107.40398 50.1732689,106.682723 C49.4024523,105.961468 48.5496345,105.240213 47.6148146,104.518958 C46.6799948,103.797703 45.8271769,103.076448 45.0563603,102.355193 C44.2855445,101.633938 43.9001358,100.945468 43.9001358,100.289782 C43.9001358,99.5357658 44.1297401,98.822707 44.5889504,98.150605 C45.0481606,97.4785271 45.8517774,97.1424874 46.9998016,97.1424874 C47.2294067,97.1424874 47.4344105,97.1998594 47.6148146,97.314605 C47.7952187,97.4293506 47.9674224,97.5604874 48.1314256,97.7080168 C48.2954288,97.8555462 48.443032,97.986683 48.574235,98.1014286 C48.705438,98.2161742 48.8366403,98.2735462 48.9678433,98.2735462 C49.3942526,98.2735462 49.7632605,98.1342124 50.0748668,97.8555462 C50.3864732,97.5768801 50.6324784,97.257233 50.8128825,96.896605 C50.9932866,96.5359771 51.1244889,96.1671536 51.2064909,95.7901345 C51.2884929,95.4131153 51.3294935,95.1262521 51.3294935,94.9295462 C51.3294935,94.2738594 51.0506873,93.8312712 50.4930757,93.6017815 C49.9354641,93.3722918 49.3778518,93.2575462 48.8202402,93.2575462 C48.2298277,93.2575462 47.40981,93.3558992 46.360188,93.552605 C45.310566,93.7493109 44.2855445,94.0853506 43.2851227,94.5607227 C42.2847025,95.0360947 41.4154845,95.6589977 40.6774674,96.4294286 C39.9394517,97.1998594 39.5704439,98.1588006 39.5704439,99.3062521 C39.5704439,100.158644 39.7590476,100.920879 40.1362559,101.592958 C40.5134641,102.265019 40.9890737,102.887921 41.5630862,103.461664 C42.1370978,104.03539 42.7521109,104.568134 43.4081253,105.059899 C44.0641398,105.551664 44.6791528,106.027036 45.2531645,106.486017 C45.8271769,106.944998 46.3027865,107.387586 46.6799948,107.813782 C47.057203,108.239977 47.2458068,108.682566 47.2458068,109.141546 C47.2458068,109.600526 47.0244021,109.920173 46.5815927,110.100487 C46.1387833,110.280801 45.7861756,110.370958 45.5237702,110.370958 C44.9333577,110.370958 44.4085471,110.23982 43.9493368,109.977546 C43.4901266,109.715272 43.0719177,109.436605 42.6947102,109.141546 C42.3175027,108.846487 41.9566945,108.567821 41.6122872,108.305546 C41.2678799,108.043271 40.9152722,107.912134 40.5544648,107.912134 C40.2920594,107.912134 40.0214537,107.985899 39.7426475,108.133429 C39.4638414,108.280958 39.3244386,108.535036 39.3244386,108.895664 C39.3244386,109.485782 39.5458433,109.977546 39.9886527,110.370958 C40.4314621,110.76437 40.9726736,111.067624 41.6122872,111.280723 C42.2519008,111.49382 42.9079152,111.649546 43.580329,111.747899 C44.2527428,111.846252 44.8185548,111.895429 45.277765,111.895429 C45.5729713,111.895429 46.0567813,111.87084 46.7291958,111.821664 C47.4016103,111.772487 48.0740241,111.649546 48.7464386,111.45284 C49.4188532,111.256134 50.0174654,110.944684 50.5422768,110.518487 C51.0670882,110.092291 51.3294935,109.485782 51.3294935,108.698958 L51.3294935,108.698958 Z M82.2619635,106.004993 L82.2277493,106.141782 C82.0965471,106.66633 81.9243434,107.182683 81.7111384,107.69084 C81.49807,108.198998 81.2356639,108.649782 80.9239217,109.043193 C80.6123146,109.436605 80.2597076,109.633311 79.8660992,109.633311 C79.5052911,109.633311 79.2100848,109.477585 78.9804804,109.166134 C78.750876,108.854684 78.5704712,108.469468 78.4392689,108.010487 C78.3080666,107.551507 78.2260639,107.043351 78.1932637,106.486017 C78.1604635,105.928683 78.1440627,105.420526 78.1440627,104.961546 C78.1440627,104.043585 78.1768629,103.256762 78.2424648,102.601076 C78.3080666,101.945399 78.5048708,101.19136 78.8328773,100.338958 L78.8328773,100.142252 C78.8328773,99.9127617 78.7590757,99.7242521 78.6114726,99.5767227 C78.4638695,99.4291933 78.2998655,99.3144484 78.1194621,99.2324874 C77.9390588,99.1505271 77.7668552,99.084958 77.6028512,99.0357815 C77.4388472,98.986605 77.356846,98.929233 77.356846,98.8636639 C77.2584439,98.2407624 77.2256437,97.5850756 77.2584439,96.896605 C77.2912441,96.2081345 77.2666435,95.5524477 77.1846423,94.9295462 C77.1026411,94.3066448 76.9222362,93.7247227 76.6434308,93.1837815 C76.3646254,92.6428403 75.8808146,92.1756639 75.192,91.7822521 C74.5359863,91.6838992 74.0439759,91.5527624 73.7159687,91.3888403 L72.7811488,90.9216639 C72.4859426,90.7741345 72.1661358,90.6429977 71.8217285,90.5282521 C71.4773211,90.4135065 70.9771103,90.3561345 70.3210966,90.3561345 C69.1730717,90.3561345 68.2136514,90.7577418 67.4428355,91.560958 C66.6720189,92.3641742 66.0406057,93.4460565 65.5485953,94.806605 C65.0565849,96.1671536 64.7039771,97.732605 64.4907728,99.502958 C64.3739324,100.473148 64.2891074,101.472877 64.2362979,102.502143 C64.2308151,102.510361 64.2254382,102.51875 64.2201671,102.527311 C64.0889641,102.740409 63.9741619,103.09284 63.8757598,103.584605 C63.7117566,104.436997 63.5149524,105.248409 63.2853473,106.01884 C63.0557421,106.789271 62.7933368,107.485939 62.4981305,108.10884 C62.2029243,108.731743 61.8749171,109.223507 61.5141097,109.584134 C61.1533023,109.944762 60.7596939,110.125076 60.3332846,110.125076 C60.0380783,110.125076 59.7838727,109.977546 59.5706684,109.682487 C59.3574641,109.387429 59.1852605,109.002213 59.0540574,108.52684 C58.9228544,108.051468 58.8244523,107.518723 58.7588512,106.928605 C58.69325,106.338487 58.6604491,105.731977 58.6604491,105.109076 C58.6604491,103.469864 58.6768492,101.904413 58.7096501,100.412723 C58.7424511,98.9210359 58.7834517,97.6014683 58.8326527,96.4540168 C58.8818538,95.3065653 58.9310548,94.3804095 58.9802559,93.6755462 C59.0294569,92.970683 59.0704575,92.5854683 59.1032585,92.5198992 C59.1688596,92.3890581 59.4722663,92.2825095 60.0134778,92.2002521 C60.5546893,92.1182918 61.1533023,92.0445271 61.8093159,91.978958 C62.4653296,91.9133889 63.0803427,91.8642124 63.6543551,91.8314286 C64.2283675,91.7986448 64.5973754,91.7822521 64.7613786,91.7822521 C65.253389,91.7822521 65.556795,91.8314286 65.6715979,91.9297815 C65.7864008,92.0281345 65.8766018,92.0773109 65.9422037,92.0773109 C66.0406057,92.0773109 66.122607,92.0035462 66.1882089,91.8560168 C66.2538108,91.7084874 66.286611,91.6019389 66.286611,91.5363697 C66.286611,90.880683 65.9176031,90.462683 65.1795875,90.2823697 C64.4415718,90.1023867 63.6215541,89.9958382 62.7195352,89.9627227 C61.8175164,89.9299389 60.9974987,89.9053506 60.259483,89.888958 C59.5214674,89.8725653 59.1524595,89.7004477 59.1524595,89.372605 L59.693671,82.9796639 C59.693671,82.782958 59.5214674,82.6026433 59.1770601,82.4387227 C58.8326527,82.2757026 58.430844,82.1363702 57.9716345,82.0207227 C57.5124242,81.906888 57.0696148,81.8167322 56.6432063,81.7502521 C56.2167977,81.6846845 55.9215914,81.6518992 55.7575875,81.6518992 C55.6263852,81.6518992 55.5197819,81.848605 55.4377807,82.2420168 C55.3557794,82.6354286 55.2983772,83.1353904 55.265577,83.7418992 C55.2327761,84.348408 55.2081756,84.9958992 55.1917755,85.6843697 C55.1753754,86.3728403 55.1589745,87.02033 55.1425744,87.6268403 C55.1261743,88.2333506 55.0851729,88.7333109 55.0195718,89.1267227 C54.9539707,89.5201345 54.8719687,89.7168403 54.7735666,89.7168403 C53.1007311,89.7168403 51.837904,89.7496241 50.9850862,89.8151933 C50.1322668,89.8807624 49.7058575,90.1266448 49.705859,90.5528403 C49.705859,91.044605 49.9764648,91.3970359 50.5176762,91.6101345 C51.0588877,91.823233 51.6493003,91.978958 52.2889138,92.0773109 C52.9285274,92.1756639 53.5107395,92.2740168 54.0355509,92.3723697 C54.5603623,92.4707227 54.8227676,92.6510359 54.8227676,92.9133109 C54.7571665,94.388605 54.6915646,96.003233 54.6259634,97.7571933 C54.5603623,99.5111543 54.5111613,101.207743 54.4783603,102.846958 L54.4783603,103.289546 C54.4783603,104.699269 54.5849628,106.018837 54.7981671,107.248252 C55.0113714,108.477663 55.3393786,109.543154 55.782188,110.444723 C56.2249974,111.346291 56.7826097,112.051154 57.4550235,112.559311 C58.1274373,113.067468 58.9064543,113.321546 59.7920731,113.321546 C60.7104929,113.321546 61.5141097,112.944526 62.2029243,112.190487 C62.8917389,111.436448 63.473951,110.559468 63.9495614,109.559546 C64.147952,109.14245 64.329221,108.722502 64.4933684,108.299702 C64.640199,109.020594 64.844338,109.69462 65.1057859,110.321782 C65.4337931,111.108605 65.8684021,111.756095 66.4096136,112.264252 C66.9508251,112.772409 67.6150392,113.026487 68.4022559,113.026487 C68.9270665,113.059272 69.2632742,113.116644 69.4108773,113.198605 C69.5584804,113.280566 69.8126853,113.337938 70.1734935,113.370723 C70.8623081,113.370722 71.4609211,113.16582 71.9693316,112.756017 C72.4777421,112.346213 72.928752,111.846252 73.3223603,111.256134 C73.7159687,110.666017 74.0439759,110.034919 74.3063812,109.36284 C74.5687865,108.690762 74.7983916,108.076057 74.9951958,107.518723 C75.1591991,108.86288 75.6102089,109.920174 76.3482245,110.690605 C77.0862402,111.461037 77.9472585,111.846252 78.9312794,111.846252 C79.5544921,111.846252 80.1449046,111.649546 80.702517,111.256134 C81.2601293,110.862723 81.7439386,110.379154 82.1539478,109.805429 C82.3242712,109.567095 82.4818586,109.324519 82.62671,109.077699 C82.7574642,109.637444 82.9278837,110.142295 83.1379687,110.592252 C83.482376,111.329899 83.9579863,111.920017 84.564799,112.362605 C85.1716123,112.805193 85.9342285,113.059272 86.8526475,113.12484 C87.2134557,113.12484 87.4922611,113.174017 87.6890653,113.27237 C87.8858695,113.370723 88.1154746,113.419899 88.3778799,113.419899 C88.8698903,113.419899 89.3126997,113.247782 89.7063081,112.903546 C90.0999164,112.559311 90.4525242,112.157703 90.7641305,111.698723 C91.0757369,111.239743 91.3463427,110.756173 91.5759478,110.248017 C91.8055529,109.73986 92.0023571,109.338252 92.1663603,109.043193 C92.1663603,109.764448 92.1499602,110.469311 92.1171593,111.157782 C92.0843583,111.846252 92.0351573,112.534723 91.9695561,113.223193 L91.9695561,113.27237 C91.6087487,113.534644 91.1905398,113.870684 90.7149295,114.280487 C90.2393192,114.690291 89.8047102,115.091899 89.4111018,115.485311 C88.6566861,116.239351 87.959671,117.099939 87.3200574,118.067076 C86.6804439,119.034215 86.1310327,120.050529 85.6718225,121.116017 C85.2126122,122.181507 84.8600052,123.279782 84.614,124.41084 C84.3679948,125.541899 84.2449922,126.64837 84.2449922,127.730252 C84.2449922,128.812134 84.482797,129.672723 84.9584073,130.312017 C85.4340169,130.951311 86.0408303,131.43488 86.778846,131.762723 C87.5168616,132.090565 88.3286789,132.295468 89.2142977,132.377429 C90.0999164,132.459389 90.9691352,132.50037 91.821953,132.50037 C92.7403727,132.50037 93.4783884,132.197115 94.036,131.590605 C94.5936123,130.984095 95.0200209,130.18088 95.3152272,129.180958 C95.6104334,128.181036 95.7990379,127.049977 95.8810392,125.787782 C95.9630404,124.525586 96.0040418,123.238801 96.0040418,121.927429 L96.0040418,118.042487 C96.0040418,116.69833 95.9876409,115.583664 95.9548407,114.698487 L96.0040418,114.10837 C96.0040418,113.911664 96.086043,113.813311 96.250047,113.813311 L97.2340679,113.911664 C97.496474,113.911664 97.7752794,113.846095 98.0704856,113.714958 C98.3656919,113.58382 98.513295,113.354331 98.513295,113.026487 C98.513295,112.829782 98.4394935,112.66586 98.2918903,112.534723 C98.1442872,112.403585 97.9638839,112.297037 97.7506789,112.215076 C97.5374738,112.133115 97.3160691,112.067546 97.0864648,112.01837 C96.8568604,111.969193 96.6764555,111.944605 96.5452533,111.944605 C96.4796514,111.944605 96.4222507,111.952801 96.3730496,111.969193 C96.3238486,111.985585 96.2664478,111.993782 96.200846,111.993782 L96.0040418,111.993782 C95.9712416,111.534801 95.9548407,110.952879 95.9548407,110.248017 L95.9548407,108.551429 C95.9548407,107.994095 95.9630404,107.362998 95.9794413,106.658134 C95.9958421,105.953271 96.0204426,105.264801 96.0532428,104.592723 C96.086043,103.920644 96.1352441,103.297743 96.200846,102.724017 C96.2664478,102.150291 96.3484491,101.732291 96.4468512,101.470017 C96.4796514,101.404448 96.5698538,101.248723 96.7174569,101.00284 C96.8650601,100.756958 96.9388616,100.601232 96.9388616,100.535664 C96.9388616,100.306173 96.8404595,100.142252 96.6436554,100.043899 C96.4468512,99.9455462 96.2254465,99.8635852 95.9794413,99.7980168 C95.733436,99.7324484 95.5120313,99.6504874 95.3152272,99.5521345 C95.118423,99.4537815 95.0200209,99.2734675 95.0200209,99.0111933 C95.0200209,98.3555065 95.0610223,97.8145653 95.1430235,97.3883697 C95.2250247,96.9622312 95.2660261,96.4868591 95.2660261,95.9622521 C95.2660261,95.2082124 95.1512232,94.5771153 94.9216188,94.068958 C94.6920144,93.5608006 94.3804073,93.1509977 93.986799,92.8395462 C93.5931906,92.5280947 93.1175803,92.2740168 92.5599687,92.0773109 C92.0023571,91.880605 91.3955437,91.716683 90.73953,91.5855462 C90.5755268,91.5527624 90.3787226,91.4871933 90.1491175,91.3888403 C89.9195124,91.2904874 89.6817076,91.1757418 89.4357023,91.044605 C89.1896971,90.9134683 88.960092,90.7987227 88.7468877,90.7003697 C88.5336835,90.6020168 88.3614798,90.5528403 88.2302768,90.5528403 C87.0494517,90.5528403 86.0736305,90.987233 85.3028146,91.8560168 C84.531998,92.7248006 83.916985,93.8394683 83.4577755,95.2000168 C82.998566,96.5605653 82.6787592,98.0604477 82.4983551,99.6996639 C82.317951,101.338879 82.2277493,102.928919 82.2277493,104.469782 C82.2277493,105.002892 82.2391541,105.514629 82.2619635,106.004993 Z M74.5523864,98.4210756 L74.5523864,98.8636639 C74.5523864,98.929233 74.4375842,99.0357815 74.2079791,99.1833109 C73.978374,99.3308403 73.8307709,99.683272 73.7651697,100.240605 C73.6667676,101.289703 73.5601651,102.44535 73.4453629,103.707546 C73.3305607,104.96974 73.1337566,106.149975 72.8549504,107.248252 C72.5761442,108.346526 72.1825359,109.264487 71.6741253,110.002134 C71.1657148,110.739782 70.4522996,111.108605 69.5338799,111.108605 C69.1402715,111.108605 68.8204648,110.879115 68.5744595,110.420134 C68.3284543,109.961155 68.1398498,109.403822 68.0086475,108.748134 C67.8774452,108.092448 67.7872428,107.403977 67.7380418,106.682723 C67.6888407,105.961474 67.6642402,105.322179 67.6642402,104.76484 C67.6642402,104.043585 67.7134413,103.09284 67.8118433,101.912605 C67.9102454,100.73237 68.1234505,99.5767227 68.4514569,98.4456639 C68.7794634,97.314605 69.2222728,96.3310756 69.7798851,95.4950756 C70.3374899,94.6590756 71.0919057,94.2410756 72.0431332,94.2410756 C72.5679445,94.2410756 73.0025535,94.388605 73.3469608,94.6836639 C73.6913681,94.9787227 73.9455738,95.3393506 74.109577,95.7655462 C74.2734984,96.1917418 74.3883006,96.6507227 74.4539843,97.1424874 C74.5195855,97.6342521 74.5523864,98.0604477 74.5523864,98.4210756 Z M92.2155614,97.830958 C92.2155614,98.1260168 92.1909608,98.4538594 92.1417598,98.8144874 C92.0925587,99.1751146 91.9695561,99.4865661 91.772752,99.7488403 C91.7071508,99.8471933 91.6415489,100.068487 91.5759478,100.412723 C91.5103466,100.756958 91.4611456,101.404448 91.4283446,102.355193 C91.3956203,103.043664 91.2890178,103.855076 91.1085379,104.789429 C90.9281338,105.723782 90.657528,106.625351 90.2967206,107.494134 C89.9359132,108.362918 89.5013035,109.09237 88.992893,109.682487 C88.4844824,110.272605 87.8858695,110.567664 87.1970548,110.567664 C86.8034465,110.567664 86.4836397,110.370958 86.2376345,109.977546 C85.9916292,109.584134 85.8112259,109.09237 85.696423,108.502252 C85.58162,107.912134 85.4996188,107.248252 85.4504178,106.510605 C85.4012167,105.772958 85.3766162,105.059899 85.3766162,104.371429 C85.3766162,102.764997 85.4996188,101.306095 85.745624,99.9947227 C85.9916292,98.6833506 86.3196357,97.5768801 86.7296449,96.6753109 C87.1396541,95.7737418 87.6152637,95.0770756 88.1564752,94.5853109 C88.6976867,94.0935462 89.2798988,93.8476639 89.9031123,93.8476639 C90.3623218,93.8476639 90.73953,93.9869977 91.0347363,94.2656639 C91.3299426,94.54433 91.5677474,94.8885653 91.7481514,95.2983697 C91.9285555,95.7081126 92.0515581,96.1425053 92.1171593,96.6015462 C92.1827604,97.0604716 92.2155614,97.470276 92.2155614,97.830958 L92.2155614,97.830958 Z M130.501205,108.627078 C130.293689,109.030756 130.053473,109.423539 129.780559,109.805429 C129.37055,110.379154 128.88674,110.862723 128.329128,111.256134 C127.771516,111.649546 127.181103,111.846252 126.55789,111.846252 C125.573869,111.846252 124.712851,111.461037 123.974836,110.690605 C123.23682,109.920174 122.78581,108.86288 122.621807,107.518723 C122.425003,108.076057 122.195397,108.690762 121.932992,109.36284 C121.670587,110.034919 121.34258,110.666017 120.948971,111.256134 C120.555363,111.846252 120.104353,112.346213 119.595943,112.756017 C119.087532,113.16582 118.488919,113.370722 117.800104,113.370723 C117.439296,113.337938 117.185091,113.280566 117.037488,113.198605 C116.889885,113.116644 116.553677,113.059272 116.028867,113.026487 C115.24165,113.026487 114.577436,112.772409 114.036225,112.264252 C113.495013,111.756095 113.060404,111.108605 112.732397,110.321782 C112.560135,109.908559 112.412751,109.474991 112.290247,109.021079 C112.265945,109.085601 112.241124,109.150345 112.215786,109.215311 C111.838578,110.182448 111.330167,111.043037 110.690554,111.797076 C110.05094,112.551115 109.239123,112.928134 108.255102,112.928134 C107.20548,112.928134 106.369062,112.559311 105.745849,111.821664 C105.122635,111.084017 104.647025,110.19884 104.319018,109.166134 C103.991012,108.133429 103.777807,107.051546 103.679405,105.920487 C103.581003,104.789429 103.531802,103.846879 103.531802,103.09284 C103.531802,102.240448 103.581003,101.37986 103.679405,100.511076 C103.777807,99.6422678 103.843409,98.7816796 103.876209,97.9293109 C103.876209,97.6670299 103.745007,97.5031078 103.482601,97.4375462 C103.220194,97.3719771 102.974189,97.3391933 102.744585,97.3391933 C102.350977,97.3391933 102.104971,97.3883697 102.006569,97.4867227 C101.908167,97.5850756 101.842566,97.6998212 101.809765,97.830958 L101.612961,99.404605 C101.481758,100.453703 101.342355,101.46182 101.194752,102.428958 C101.047149,103.396095 100.883146,104.248487 100.702742,104.986134 C100.522337,105.723782 100.309133,106.313899 100.063128,106.756487 C99.8171227,107.199076 99.5301169,107.42037 99.2021097,107.42037 L99.1529086,107.42037 C99.0217056,107.42037 98.898703,107.387586 98.7839008,107.322017 C98.6690986,107.256431 98.6116971,107.092509 98.6116971,106.830252 C98.6116971,106.633546 98.6444981,106.43684 98.7100992,106.240134 C98.9725045,105.092684 99.1365085,104.141938 99.2021097,103.387899 C99.2677108,102.63386 99.3169118,101.961782 99.3497128,101.371664 L99.3497128,101.027429 C99.3497128,100.863507 99.3579132,100.666801 99.3743133,100.437311 C99.3907134,100.207776 99.3989138,99.9291093 99.3989138,99.6013109 L99.3989138,97.9784874 C99.3989138,97.3555859 99.3661129,96.6671153 99.3005117,95.9130756 L99.1529086,93.0116639 C99.1529086,92.814958 99.2349106,92.6346448 99.3989138,92.4707227 C99.5629178,92.3068006 99.7761221,92.1592712 100.038527,92.0281345 C100.300933,91.8969977 100.579739,91.7986448 100.874945,91.7330756 C101.170151,91.6675065 101.432557,91.6347227 101.662162,91.6347227 C102.022976,91.6347227 102.260782,91.7658594 102.375577,92.0281345 C102.490437,92.2904095 102.531438,92.6018594 102.49858,92.9624874 L102.449379,94.0443697 C102.416578,94.4049977 102.441179,94.6262918 102.52318,94.7082521 C102.605181,94.7902124 102.826586,94.8639771 103.187394,94.9295462 L103.334997,94.9295462 C103.597403,94.9625867 104.023812,94.9953705 104.614225,95.0278992 C105.204637,95.060683 105.79505,95.1262521 106.385462,95.224605 C106.975875,95.322958 107.492486,95.478683 107.935295,95.6917815 C108.378104,95.9048801 108.599509,96.2081345 108.599509,96.6015462 C108.599509,96.7654683 108.566708,96.9621742 108.501107,97.1916639 C108.435506,97.4211536 108.361704,97.6588403 108.279702,97.9047227 C108.1977,98.150605 108.115699,98.3718992 108.033697,98.568605 C107.951695,98.7653109 107.910695,98.8964477 107.910695,98.9620168 C107.320282,101.224134 107.025076,103.584605 107.025076,106.043429 C107.025076,106.240134 107.041476,106.600762 107.074277,107.125311 C107.107078,107.649859 107.172679,108.190801 107.271081,108.748134 C107.369483,109.305468 107.517086,109.797232 107.71389,110.223429 C107.910695,110.649625 108.1567,110.862723 108.451906,110.862723 C108.943916,110.862723 109.386726,110.559468 109.780334,109.952958 C110.173943,109.346448 110.51835,108.641586 110.813556,107.83837 C111.108762,107.035154 111.346568,106.223742 111.526971,105.404134 C111.645217,104.866922 111.738802,104.42126 111.807727,104.067148 C111.838943,102.47932 111.942162,100.957923 112.117384,99.502958 C112.330588,97.732605 112.683196,96.1671536 113.175206,94.806605 C113.667217,93.4460565 114.29863,92.3641742 115.069446,91.560958 C115.840262,90.7577418 116.799683,90.3561345 117.947708,90.3561345 C118.603721,90.3561345 119.103932,90.4135065 119.448339,90.5282521 C119.792747,90.6429977 120.112554,90.7741345 120.40776,90.9216639 L121.34258,91.3888403 C121.670587,91.5527624 122.162597,91.6838992 122.818611,91.7822521 C123.507426,92.1756639 123.991236,92.6428403 124.270042,93.1837815 C124.548847,93.7247227 124.729252,94.3066448 124.811253,94.9295462 C124.893255,95.5524477 124.917855,96.2081345 124.885055,96.896605 C124.852255,97.5850756 124.885055,98.2407624 124.983457,98.8636639 C124.983457,98.929233 125.065458,98.986605 125.229462,99.0357815 C125.393466,99.084958 125.56567,99.1505271 125.746073,99.2324874 C125.926476,99.3144484 126.09048,99.4291933 126.238084,99.5767227 C126.385687,99.7242521 126.459488,99.9127617 126.459488,100.142252 L126.459488,100.338958 C126.131482,101.19136 125.934678,101.945399 125.869076,102.601076 C125.803474,103.256762 125.770674,104.043585 125.770674,104.961546 C125.770674,105.420526 125.787074,105.928683 125.819875,106.486017 C125.852675,107.043351 125.934678,107.551507 126.06588,108.010487 C126.197082,108.469468 126.377487,108.854684 126.607091,109.166134 C126.836696,109.477585 127.131902,109.633311 127.49271,109.633311 C127.886319,109.633311 128.238926,109.436605 128.550533,109.043193 C128.862275,108.649782 129.124681,108.198998 129.337749,107.69084 C129.550954,107.182683 129.723158,106.66633 129.85436,106.141782 L130.149567,104.961546 C130.182367,104.76484 130.247969,104.617311 130.346371,104.518958 C130.38021,104.485136 130.414049,104.457129 130.447887,104.434938 C130.455919,103.406894 130.479481,102.254666 130.518574,100.978252 C130.567775,99.3718205 130.625177,97.4867227 130.690778,95.322958 C130.690778,95.0278992 130.674378,94.642683 130.641577,94.1673109 C130.608776,93.6919389 130.592376,93.4214683 130.592376,93.3558992 C130.592376,93.0936241 130.698978,92.9378992 130.912183,92.8887227 C131.125387,92.8395462 131.281191,92.814958 131.379593,92.814958 C131.609198,92.814958 131.879804,92.8395462 132.19141,92.8887227 C132.503023,92.9378992 132.81463,92.9952712 133.12623,93.0608403 C133.437841,93.1264095 133.724846,93.2001742 133.987248,93.2821345 C134.249654,93.3640947 134.430057,93.4378594 134.52846,93.5034286 L134.52846,105.354958 C134.692464,104.732056 134.889268,103.978017 135.118872,103.09284 C135.348477,102.207664 135.594482,101.338879 135.856888,100.486487 C136.119293,99.6340955 136.414499,98.8472712 136.742507,98.1260168 C137.070514,97.4047624 137.414921,96.8802124 137.775728,96.5523697 C137.906931,96.4540168 138.152937,96.3802521 138.513744,96.3310756 C138.874552,96.2818992 139.169758,96.2573109 139.399363,96.2573109 C139.563366,96.2573109 139.768371,96.2818992 140.014376,96.3310756 C140.260381,96.3802521 140.498186,96.4540168 140.727791,96.5523697 C140.957442,96.6507227 141.162447,96.7736639 141.342804,96.9211933 C141.523208,97.0687227 141.629811,97.2408403 141.662611,97.4375462 L141.662611,105.404134 L141.662611,105.920487 C141.662611,106.068017 141.695411,106.141782 141.761013,106.141782 C141.793813,106.141782 141.974218,105.699193 142.302225,104.814017 C142.630231,103.92884 143.00744,102.879743 143.433849,101.666723 C143.860257,100.453703 144.319467,99.2078992 144.811478,97.9293109 C145.303488,96.6507227 145.746298,95.6344095 146.139906,94.8803697 C146.205508,94.749233 146.426913,94.6754683 146.80412,94.6590756 C147.181328,94.642683 147.517535,94.6344874 147.812742,94.6344874 C148.042346,94.6344874 148.353953,94.7082521 148.747561,94.8557815 C149.14117,95.0033109 149.526578,95.2082124 149.903786,95.4704874 C150.280993,95.7327624 150.609001,96.0278212 150.887807,96.3556639 C151.166612,96.6835065 151.306016,97.0277418 151.306016,97.3883697 C151.306016,97.4539389 151.207614,97.6424477 151.010809,97.9538992 C150.814005,98.2653506 150.682803,98.5849977 150.617201,98.9128403 C150.518799,99.3718205 150.428597,99.822605 150.346595,100.265193 C150.264594,100.707782 150.198992,101.166762 150.149791,101.642134 C150.10059,102.117507 150.06779,102.625664 150.051389,103.166605 C150.034988,103.707546 150.026789,104.322252 150.026789,105.010723 C150.026789,105.60084 150.051389,106.190958 150.10059,106.781076 C150.149791,107.371193 150.231792,107.903939 150.346595,108.379311 C150.461398,108.854684 150.617201,109.239899 150.814005,109.534958 C151.010809,109.830017 151.273215,109.977546 151.601222,109.977546 C152.093232,109.977546 152.511441,109.82182 152.855849,109.51037 C153.200256,109.198919 153.503662,108.780919 153.766068,108.25637 C154.028665,107.731821 154.250069,107.117115 154.430282,106.412252 C154.610687,105.707389 154.78289,104.977938 154.946893,104.223899 C155.078097,103.437076 155.373303,103.043664 155.832512,103.043664 C156.094916,103.043664 156.26712,103.109232 156.349123,103.24037 C156.431125,103.371507 156.472125,103.666566 156.472125,104.125546 C156.472125,104.355037 156.455726,104.53535 156.422924,104.666487 C156.390123,105.092684 156.250721,105.756565 156.004715,106.658134 C155.75871,107.559704 155.414303,108.461271 154.971493,109.36284 C154.528684,110.264409 153.979273,111.051232 153.323258,111.723311 C152.667244,112.39539 151.912829,112.731429 151.06001,112.731429 C150.043189,112.731429 149.206772,112.493743 148.550757,112.01837 C147.894743,111.542997 147.386333,110.903703 147.025525,110.100487 C146.664717,109.297271 146.410512,108.371114 146.262909,107.322017 C146.115305,106.272918 146.041504,105.174644 146.041504,104.027193 L146.041504,103.682958 L146.33671,99.6504874 C146.106975,100.076684 145.877371,100.535664 145.647896,101.027429 C145.418167,101.519193 145.213163,101.994566 145.032883,102.453546 C144.852479,102.912543 144.688475,103.346935 144.540872,103.756723 C144.393269,104.166541 144.270266,104.50258 144.171864,104.76484 C144.106262,104.928762 143.999661,105.272997 143.852057,105.797546 C143.704454,106.322095 143.548652,106.904017 143.384648,107.543311 C143.220644,108.182605 143.07304,108.813703 142.941838,109.436605 C142.810636,110.059507 142.745034,110.567664 142.745034,110.961076 C142.745034,111.124997 142.597431,111.272526 142.302225,111.403664 C142.007018,111.534801 141.629811,111.60037 141.170601,111.60037 C140.448985,111.60037 139.874973,111.502017 139.448564,111.305311 C139.022155,111.108605 138.702348,110.788958 138.489144,110.34637 C138.275939,109.903782 138.144736,109.330056 138.095535,108.625193 C138.046334,107.920329 138.021734,107.043348 138.021734,105.994252 L138.021734,102.306017 C138.021734,102.043743 138.013533,101.781468 137.997133,101.519193 C137.980733,101.256919 137.923332,101.092997 137.82493,101.027429 C137.660926,101.093017 137.455922,101.527409 137.209916,102.330605 C136.963911,103.13382 136.726106,104.092762 136.496501,105.207429 C136.266896,106.322095 136.078292,107.50233 135.930689,108.748134 C135.783086,109.993939 135.709285,111.108605 135.709285,112.092134 C135.709285,112.452762 135.520681,112.66586 135.143473,112.731429 C134.766265,112.796997 134.348056,112.829782 133.888846,112.829782 C133.724842,112.829782 133.495238,112.805193 133.200031,112.756017 C132.904825,112.70684 132.593218,112.649468 132.265211,112.583899 C131.937204,112.518331 131.641998,112.428173 131.379593,112.313429 C131.117187,112.198684 130.969584,112.05935 130.936783,111.895429 C130.77278,111.469232 130.649777,110.756173 130.567775,109.756252 C130.541317,109.433618 130.519127,109.057227 130.501205,108.627078 Z M92.0187572,114.94437 L92.0187572,118.952252 C92.0187572,119.952173 92.0105568,120.730801 91.9941567,121.288134 C91.9777566,121.845468 91.9695561,122.222487 91.9695561,122.419193 L91.9695561,122.861782 C91.9695561,123.353546 91.9203551,124.009232 91.821953,124.82884 C91.7235509,125.648448 91.5513473,126.451664 91.305342,127.238487 C91.0593368,128.025311 90.7231299,128.705586 90.2967206,129.279311 C89.8703113,129.853036 89.3126997,130.139899 88.6238851,130.139899 C88.2302768,130.139899 87.8940699,130.025154 87.6152637,129.795664 C87.3364583,129.566174 87.1232533,129.279311 86.9756501,128.935076 C86.828047,128.59084 86.7214452,128.222017 86.6558433,127.828605 C86.5902414,127.435193 86.5574413,127.074565 86.5574413,126.746723 C86.5574413,125.828762 86.6968447,124.796057 86.9756501,123.648605 C87.2544555,122.501154 87.6398642,121.370095 88.1318747,120.255429 C88.6238851,119.140762 89.2060972,118.108056 89.8785117,117.157311 C90.5509263,116.206565 91.2643414,115.468918 92.0187572,114.94437 Z M122.178997,98.8636639 C122.178997,98.929233 122.064195,99.0357815 121.83459,99.1833109 C121.604985,99.3308403 121.457382,99.683272 121.391781,100.240605 C121.293379,101.289703 121.186776,102.44535 121.071974,103.707546 C120.957172,104.96974 120.760368,106.149975 120.481561,107.248252 C120.202755,108.346526 119.809147,109.264487 119.300736,110.002134 C118.792326,110.739782 118.078911,111.108605 117.160491,111.108605 C116.766883,111.108605 116.447076,110.879115 116.20107,110.420134 C115.955065,109.961155 115.766461,109.403822 115.635258,108.748134 C115.504056,108.092448 115.413854,107.403977 115.364653,106.682723 C115.315452,105.961474 115.290851,105.322179 115.290851,104.76484 C115.290851,104.043585 115.340052,103.09284 115.438454,101.912605 C115.536856,100.73237 115.750061,99.5767227 116.078068,98.4456639 C116.406074,97.314605 116.848884,96.3310756 117.406496,95.4950756 C117.964101,94.6590756 118.718517,94.2410756 119.669744,94.2410756 C120.194556,94.2410756 120.629164,94.388605 120.973572,94.6836639 C121.317979,94.9787227 121.572185,95.3393506 121.736188,95.7655462 C121.900109,96.1917418 122.014912,96.6507227 122.080595,97.1424874 C122.146196,97.6342521 122.178997,98.0604477 122.178997,98.4210756 L122.178997,98.8636639 Z" id="Instagram" fill="url(#linearGradient-2)"></path>
                </g>
            </g>
        </g>
    </g>
</svg>